<svg id="visual" viewBox="0 0 1444 900" width="1444" height="900" xmlns="http://www.w3.org/2000/svg" xmlns:xlink="http://www.w3.org/1999/xlink" version="1.1"><g fill="#CCCCCC"><circle r="85" cx="295" cy="619"></circle><circle r="53" cx="1076" cy="592"></circle><circle r="68" cx="1395" cy="488"></circle><circle r="52" cx="554" cy="257"></circle><circle r="82" cx="951" cy="466"></circle><circle r="72" cx="1226" cy="814"></circle><circle r="81" cx="866" cy="813"></circle><circle r="65" cx="685" cy="870"></circle><circle r="76" cx="1263" cy="185"></circle><circle r="67" cx="89" cy="452"></circle><circle r="55" cx="1181" cy="335"></circle><circle r="69" cx="436" cy="423"></circle><circle r="54" cx="445" cy="101"></circle><circle r="81" cx="255" cy="881"></circle><circle r="64" cx="988" cy="56"></circle><circle r="75" cx="821" cy="359"></circle><circle r="71" cx="7" cy="871"></circle><circle r="56" cx="1440" cy="671"></circle><circle r="79" cx="645" cy="401"></circle><circle r="59" cx="157" cy="219"></circle><circle r="53" cx="220" cy="38"></circle><circle r="74" cx="128" cy="724"></circle><circle r="60" cx="527" cy="770"></circle><circle r="74" cx="816" cy="80"></circle><circle r="82" cx="909" cy="636"></circle><circle r="60" cx="1298" cy="2"></circle><circle r="54" cx="1434" cy="876"></circle><circle r="74" cx="615" cy="604"></circle><circle r="79" cx="628" cy="5"></circle><circle r="65" cx="12" cy="107"></circle><circle r="64" cx="1436" cy="150"></circle><circle r="81" cx="923" cy="215"></circle><circle r="53" cx="1240" cy="633"></circle><circle r="79" cx="311" cy="297"></circle><circle r="69" cx="1033" cy="846"></circle><circle r="56" cx="6" cy="296"></circle><circle r="81" cx="1413" cy="319"></circle></g></svg>