<svg xmlns="http://www.w3.org/2000/svg" version="1.1" xmlns:xlink="http://www.w3.org/1999/xlink" xmlns:svgjs="http://svgjs.com/svgjs" width="1440" height="950" preserveAspectRatio="none" viewBox="0 0 1440 950"><g mask="url(&quot;#SvgjsMask2190&quot;)" fill="none"><use xlink:href="#SvgjsG2204" transform="translate(0, 0)" fill="rgba(69, 69, 71, 0.41)"></use><use xlink:href="#SvgjsG2204" transform="translate(1410, 0)" fill="rgba(69, 69, 71, 0.41)"></use></g><defs><mask id="SvgjsMask2190"><rect width="1440" height="950" fill="#ffffff"></rect></mask><g id="SvgjsG2193"><path d="M6.33 9.08L12.7 4.28l1.33 1.77-6.37 4.8z"></path><path d="M7.86 0.36l2.52 0.36-1.12 7.95L6.74 8.31z"></path><path d="M7.67 10.86L2.87 4.49l1.76-1.33L9.44 9.53zM0.53 12.28l13.6 1.91-0.31 2.24L0.22 14.52z"></path><path d="M0.64 8.12l2.25 0.32-0.89 6.33-2.25-0.31z m12.15 1.71l2.25 0.31-0.89 6.34-2.25-0.31z"></path></g><g id="SvgjsG2195"><path d="M3.1 10.31C3.56 7.04 9.14 0.45 9.14 0.45s3.54 7.87 3.08 11.14c-0.31 2.23-2.16 4.51-5.22 4.09-3.06-0.43-4.21-3.14-3.9-5.37z" fill-rule="evenodd"></path></g><g id="SvgjsG2201"><path d="M6.67 15.37C2.46 14.78-0.48 10.87 0.11 6.66 0.7 2.44 4.61-0.5 8.82 0.09S15.98 4.59 15.39 8.8c-0.59 4.22-4.51 7.16-8.72 6.57z m0.27-1.89c3.17 0.45 6.12-1.77 6.56-4.94 0.45-3.17-1.78-6.11-4.94-6.56-3.17-0.45-6.11 1.78-6.56 4.94-0.45 3.17 1.77 6.11 4.94 6.56z"></path><path d="M7.65 8.74a0.57 0.57 0 0 1-0.55-0.11 0.58 0.58 0 0 1-0.2-0.43L7.52 3.75a0.58 0.58 0 0 1 1.15 0.17l-0.49 3.44 3.14-0.97a0.58 0.58 0 0 1 0.73 0.38c0.1 0.31-0.08 0.63-0.38 0.72l-4.02 1.26z"></path></g><g id="SvgjsG2202"><path d="M11.91 8.8a46.75 46.75 0 0 1-0.46-0.48c-0.13-0.14-0.26-0.27-0.38-0.41-0.78-0.8-1.6-1.55-2.6-1.78A2.81 2.81 0 0 0 8.22 6.08c-0.09-0.01-0.17-0.01-0.25-0.02-1.02-0.05-2.02 0.44-3 1l0.09 0.09c0.1 0.1 0.19 0.2 0.28 0.29C6.3 6.89 7.23 6.45 8.15 6.58c0.92 0.13 1.69 0.8 2.46 1.6a35.1 35.1 0 0 1 0.48 0.49c0.12 0.13 0.25 0.26 0.37 0.39C12.3 9.94 13.2 10.75 14.31 10.91c0.43 0.06 0.86 0.02 1.29-0.1l0.08-0.55c-0.43 0.14-0.86 0.2-1.29 0.14-0.92-0.13-1.7-0.81-2.48-1.6z"></path><path d="M11.61 8c0.03 0.03 0.05 0.05 0.08 0.08 0.1 0.1 0.19 0.2 0.28 0.3 0.35-0.2 0.7-0.38 1.04-0.53l-0.19 1.35c0.15 0.13 0.31 0.26 0.46 0.37L13.55 7.65c0.33-0.1 0.66-0.16 0.99-0.15l-0.35 2.51c0.08 0.02 0.15 0.04 0.23 0.05 0.09 0.01 0.18 0.02 0.27 0.02L15.05 7.57c0.33 0.08 0.64 0.24 0.94 0.43L16.07 7.45C15.7 7.23 15.3 7.07 14.87 7.01c-1.12-0.16-2.2 0.38-3.26 0.99z m-7.33 0.06c-0.03-0.03-0.06-0.06-0.09-0.09-0.09-0.1-0.18-0.19-0.27-0.29-0.96 0.55-1.89 0.98-2.81 0.85C0.68 8.48 0.29 8.29-0.08 8.03l-0.08 0.55C0.21 8.82 0.61 8.98 1.04 9.04c1.11 0.16 2.2-0.38 3.24-0.98z"></path><path d="M0.9 8.15c0.08 0.02 0.17 0.04 0.25 0.05 0.09 0.01 0.17 0.02 0.25 0.02L1.76 5.7c0.32 0.08 0.62 0.23 0.92 0.42 0 0.01-0.01 0.02-0.02 0.03l-0.26 1.89a5.82 5.82 0 0 0 0.55-0.23L3.14 6.46c0.44 0.36 0.87 0.81 1.3 1.27C5.4 8.75 6.39 9.79 7.67 9.97c1.11 0.16 2.19-0.37 3.25-0.97l-0.1-0.1c-0.09-0.1-0.18-0.19-0.27-0.28-0.34 0.2-0.68 0.37-1.01 0.52L9.72 7.8A5.82 5.82 0 0 0 9.26 7.43l-0.26 1.88c0 0.01 0 0.02 0 0.03-0.33 0.1-0.67 0.16-1 0.15L8.36 6.98a1.97 1.97 0 0 0-0.27-0.06c-0.08-0.01-0.16-0.01-0.24-0.02l-0.35 2.52c-0.32-0.08-0.63-0.23-0.92-0.42 0-0.01 0.01-0.02 0.01-0.03L6.85 7.08a5.63 5.63 0 0 0-0.54 0.23l-0.19 1.35c-0.44-0.36-0.87-0.82-1.31-1.28C3.85 6.37 2.86 5.33 1.58 5.15c-0.43-0.06-0.85-0.02-1.27 0.07l-0.07 0.55c0.34-0.1 0.68-0.15 1.01-0.14L0.9 8.15z"></path></g><g id="SvgjsG2191"><path d="M2.49 7.87L0 7.52 0.19 6.2l2.48 0.35-0.18 1.32zM4.17 4L2.67 2l1.05-0.79 1.51 2-1.06 0.79z m-0.94 6.76l0.79 1.05-2 1.51-0.79-1.06 2-1.5z m6.18-8.11l-1.32-0.18L8.44-0.02l1.32 0.19-0.35 2.48z m-2.84 10.66l1.32 0.19-0.35 2.48-1.32-0.18 0.35-2.49zM12.78 5.21l-0.82-1.06 2.02-1.5 0.8 1.06-2 1.5z m-0.95 6.73l1.51 2.03-1.06 0.79-1.51-2 1.06-0.82z m4.18-3.51l-0.19 1.31-2.48-0.35L13.52 8.08l2.48 0.35z"></path><path d="M3.75 7.39a4.18 4.18 0 1 0 8.28 1.16 4.18 4.18 0 1 0-8.28-1.16"></path></g><g id="SvgjsG2197"><path d="M14.96 10.42c0.29 0.04 0.6-0.16 0.68-0.44 0 0 0.11-0.4 0.18-0.88s0.07-0.9 0.07-0.9c0-0.29-0.24-0.57-0.53-0.61l-1.51-0.21c-0.29-0.04-0.57-0.27-0.61-0.51s-0.05-0.98 0.18-1.16l1.22-0.92c0.24-0.18 0.3-0.53 0.14-0.78l-1.08-1.43c-0.2-0.22-0.55-0.25-0.78-0.07l-1.22 0.91c-0.24 0.18-0.59 0.21-0.79 0.08s-0.74-0.66-0.7-0.95L10.42 1.04c0.04-0.29-0.16-0.6-0.44-0.68 0 0-0.4-0.11-0.88-0.18s-0.9-0.07-0.9-0.07c-0.3 0-0.57 0.24-0.61 0.53l-0.21 1.51c-0.04 0.29-0.27 0.57-0.51 0.61s-0.98 0.05-1.16-0.18l-0.92-1.22C4.61 1.13 4.26 1.06 4.01 1.22l-1.43 1.08c-0.22 0.2-0.25 0.55-0.07 0.78l0.91 1.22c0.18 0.24 0.21 0.59 0.08 0.79s-0.66 0.74-0.95 0.7L1.04 5.58c-0.29-0.04-0.6 0.16-0.68 0.44 0 0-0.11 0.4-0.18 0.88s-0.07 0.9-0.07 0.9c0 0.3 0.24 0.57 0.53 0.61l1.51 0.21c0.29 0.04 0.57 0.27 0.61 0.51 0.05 0.24 0.05 0.98-0.18 1.16l-1.22 0.92C1.13 11.39 1.06 11.74 1.22 11.99l1.08 1.43c0.2 0.22 0.55 0.25 0.79 0.07l1.21-0.91c0.24-0.18 0.59-0.21 0.79-0.08s0.74 0.66 0.7 0.95l-0.21 1.51c-0.04 0.29 0.16 0.6 0.44 0.68 0 0 0.4 0.11 0.88 0.18s0.9 0.07 0.9 0.07c0.3 0 0.57-0.24 0.61-0.53l0.21-1.51c0.04-0.29 0.27-0.57 0.51-0.61 0.24-0.05 0.98-0.05 1.16 0.18l0.92 1.22c0.18 0.24 0.53 0.3 0.78 0.14l1.43-1.07c0.22-0.2 0.25-0.55 0.08-0.79l-0.92-1.22c-0.18-0.24-0.21-0.59-0.08-0.79 0.14-0.2 0.66-0.74 0.96-0.7l1.51 0.21zM7.6 10.86c-1.58-0.22-2.68-1.68-2.46-3.26 0.22-1.58 1.68-2.68 3.26-2.46S11.09 6.82 10.86 8.4 9.18 11.09 7.6 10.86z"></path></g><g id="SvgjsG2203"><path d="M10.94 13.49L2.91 12.36 4.38 1.87l8.03 1.13-1.47 10.49z m-4.23 0.96a0.46 0.46 0 1 1 0.13-0.9 0.46 0.46 0 0 1-0.13 0.9zM7.87 1.2l1.38 0.2c0.19 0.03 0.14 0.38-0.05 0.35l-1.39-0.2c-0.2-0.03-0.15-0.38 0.05-0.35zM12.52 0.97L4.84-0.11C4.51-0.16 4.2 0.16 4.14 0.58L2.32 13.54c-0.06 0.42 0.16 0.81 0.48 0.85l7.68 1.08c0.33 0.05 0.65-0.26 0.71-0.68L13.01 1.83c0.06-0.43-0.16-0.81-0.49-0.86z" fill-rule="evenodd"></path></g><g id="SvgjsG2200"><path d="M0.57 12.82l13.89 1.95L15.94 4.24 2.05 2.29l-1.48 10.53z m13.53-7.83L9.04 8.79c-0.52 0.39-1.32 0.27-1.71-0.26l-3.78-5.03 10.54 1.49z m-11.3-0.89l3.08 4.11-4.1 3.1 1.02-7.21z m-0.46 7.98l4.11-3.09 0.13 0.17c0.74 0.93 2.09 1.12 3.02 0.42l0.18-0.13 3.12 4.12-10.56-1.49z m11.34 0.9L10.58 8.87 14.69 5.77 13.67 12.98z" fill-rule="evenodd"></path></g><g id="SvgjsG2192"><path d="M14.98 14.17l0-0.01s-2.57-3.41-2.57-3.41a0.6 0.6 0 0 0-0.85-0.12L9.98 11.82c-0.61 0.46-1.23-0.11-2.41-1.38-0.78-0.84-1.65-1.94-2.37-3.15-0.51-0.85-0.94-1.72-0.3-2.2 0 0 1.58-1.19 1.58-1.19l0 0c0.28-0.21 0.31-0.6 0.12-0.85l0-0.01L3.95-0.47c-0.2-0.27-0.58-0.32-0.85-0.12L1.52 0.61C0.85 1.24-0.9 4.47 3.76 10.82c4.91 6.69 8.79 5.95 9.52 5.38 0 0 1.58-1.17 1.58-1.18l0 0c0.28-0.21 0.31-0.6 0.12-0.86z"></path></g><g id="SvgjsG2194"><path d="M2.29 10.63L2.28 10.62l-0.35 2.49c0.62-0.31 3.9-1.78 4.3-1.91l4.39 0.62c1.51 0.21 2.91-0.84 3.12-2.36L14.54 3.77A2.77 2.77 0 0 0 12.18 0.65l-7.98-1.12c-1.51-0.21-2.91 0.84-3.13 2.36l-0.8 5.68a2.77 2.77 0 0 0 2.02 3.06z" fill-rule="evenodd"></path></g><g id="SvgjsG2196"><path d="M13.46 6.23L4.21 15.51l2.83-7.05-4.2-0.52L10.83 0.32 8.03 5.47l5.43 0.76z" fill-rule="evenodd"></path></g><g id="SvgjsG2199"><path d="M1.19-1.04l4.91 0.69-0.69 4.91L0.5 3.87 1.19-1.04z m5.47 0.77l4.91 0.69-0.69 4.91L5.97 4.64 6.66-0.27z m5.47 0.77l4.91 0.69-0.69 4.91-4.91-0.69L12.13 0.5zM0.42 4.43l4.91 0.69-0.69 4.91L-0.27 9.34 0.42 4.43z m5.47 0.77l4.91 0.69-0.69 4.91L5.2 10.11 5.89 5.2z m5.47 0.77l4.91 0.69-0.69 4.91-4.91-0.69L11.36 5.97zM-0.35 9.9l4.91 0.69-0.69 4.91L-1.04 14.81l0.69-4.91z m5.47 0.77l4.91 0.69-0.69 4.91L4.43 15.58l0.69-4.91z m5.47 0.77l4.91 0.69-0.69 4.91-4.91-0.69 0.69-4.91z" fill-rule="evenodd"></path></g><g id="SvgjsG2198"><path d="M5.86 6.22l0.94 0.14a0.48 0.48 0 0 0 0.55-0.41L7.74 3.13a0.49 0.49 0 0 0-0.41-0.54l-0.94-0.14-0.53 3.77z m-0.79 5.6l0.94 0.13a0.49 0.49 0 0 1 0.42 0.55l-0.4 2.81A0.49 0.49 0 0 1 5.48 15.72l-0.94-0.13L5.07 11.82z m-0.74-2.95c0.35-2.57 0.87-2.73 1.15-2.7l0.08 0.01L6.09 2.41l-0.1-0.01C5.5 2.33 2.98 2.88 2.18 8.56 1.39 14.25 3.65 15.47 4.14 15.54l0.1 0.01L4.77 11.78l-0.08-0.01c-0.28-0.04-0.71-0.34-0.36-2.9zM8.35 3.83a1.09 1.09 0 0 1 0.15 0.73 1.09 1.09 0 0 1-0.35 0.66l0.47 0.51c0.3-0.28 0.51-0.66 0.56-1.07a1.8 1.8 0 0 0-0.24-1.19l-0.59 0.36zM9.62 7.15a3.47 3.47 0 0 0 1.23-2.19c0.12-0.86-0.08-1.73-0.57-2.44l-0.58 0.38a2.78 2.78 0 0 1 0.46 1.96c-0.1 0.7-0.45 1.32-1 1.77L9.62 7.16z m-0.47-0.41z m0 0z m0 0z"></path><path d="M10.62 8.58a5.14 5.14 0 0 0 1.89-3.31 5.15 5.15 0 0 0-0.89-3.7l-0.58 0.39A4.46 4.46 0 0 1 11.82 5.17c-0.16 1.14-0.74 2.16-1.64 2.88l0.44 0.53z"></path><path d="M11.62 10.01c1.4-1.1 2.3-2.68 2.55-4.44 0.25-1.76-0.19-3.51-1.21-4.95l-0.57 0.4A6.14 6.14 0 0 1 13.49 5.48c-0.22 1.58-1.04 3-2.3 3.98l0.43 0.55z"></path></g><g id="SvgjsG2204"><use xlink:href="#SvgjsG2191" transform="translate(0, 0) scale(3)" fill="rgba(69, 69, 71, 0.41)"></use><use xlink:href="#SvgjsG2191" transform="translate(0, 141) scale(3)" fill="rgba(69, 69, 71, 0.41)"></use><use xlink:href="#SvgjsG2192" transform="translate(0, 282) scale(3)" fill="rgba(69, 69, 71, 0.41)"></use><use xlink:href="#SvgjsG2193" transform="translate(0, 423) scale(3)" fill="rgba(69, 69, 71, 0.41)"></use><use xlink:href="#SvgjsG2194" transform="translate(0, 564) scale(3)" fill="rgba(69, 69, 71, 0.41)"></use><use xlink:href="#SvgjsG2195" transform="translate(0, 705) scale(3)" fill="rgba(69, 69, 71, 0.41)"></use><use xlink:href="#SvgjsG2194" transform="translate(0, 846) scale(3)" fill="rgba(69, 69, 71, 0.41)"></use><use xlink:href="#SvgjsG2192" transform="translate(141, 0) scale(3)" fill="rgba(69, 69, 71, 0.41)"></use><use xlink:href="#SvgjsG2196" transform="translate(141, 141) scale(3)" fill="rgba(69, 69, 71, 0.41)"></use><use xlink:href="#SvgjsG2197" transform="translate(141, 282) scale(3)" fill="rgba(69, 69, 71, 0.41)"></use><use xlink:href="#SvgjsG2192" transform="translate(141, 423) scale(3)" fill="rgba(69, 69, 71, 0.41)"></use><use xlink:href="#SvgjsG2194" transform="translate(141, 564) scale(3)" fill="rgba(69, 69, 71, 0.41)"></use><use xlink:href="#SvgjsG2196" transform="translate(141, 705) scale(3)" fill="rgba(69, 69, 71, 0.41)"></use><use xlink:href="#SvgjsG2191" transform="translate(141, 846) scale(3)" fill="rgba(69, 69, 71, 0.41)"></use><use xlink:href="#SvgjsG2198" transform="translate(282, 0) scale(3)" fill="rgba(69, 69, 71, 0.41)"></use><use xlink:href="#SvgjsG2199" transform="translate(282, 141) scale(3)" fill="rgba(69, 69, 71, 0.41)"></use><use xlink:href="#SvgjsG2195" transform="translate(282, 282) scale(3)" fill="rgba(69, 69, 71, 0.41)"></use><use xlink:href="#SvgjsG2199" transform="translate(282, 423) scale(3)" fill="rgba(69, 69, 71, 0.41)"></use><use xlink:href="#SvgjsG2192" transform="translate(282, 564) scale(3)" fill="rgba(69, 69, 71, 0.41)"></use><use xlink:href="#SvgjsG2198" transform="translate(282, 705) scale(3)" fill="rgba(69, 69, 71, 0.41)"></use><use xlink:href="#SvgjsG2197" transform="translate(282, 846) scale(3)" fill="rgba(69, 69, 71, 0.41)"></use><use xlink:href="#SvgjsG2193" transform="translate(423, 0) scale(3)" fill="rgba(69, 69, 71, 0.41)"></use><use xlink:href="#SvgjsG2191" transform="translate(423, 141) scale(3)" fill="rgba(69, 69, 71, 0.41)"></use><use xlink:href="#SvgjsG2200" transform="translate(423, 282) scale(3)" fill="rgba(69, 69, 71, 0.41)"></use><use xlink:href="#SvgjsG2196" transform="translate(423, 423) scale(3)" fill="rgba(69, 69, 71, 0.41)"></use><use xlink:href="#SvgjsG2195" transform="translate(423, 564) scale(3)" fill="rgba(69, 69, 71, 0.41)"></use><use xlink:href="#SvgjsG2193" transform="translate(423, 705) scale(3)" fill="rgba(69, 69, 71, 0.41)"></use><use xlink:href="#SvgjsG2197" transform="translate(423, 846) scale(3)" fill="rgba(69, 69, 71, 0.41)"></use><use xlink:href="#SvgjsG2201" transform="translate(564, 0) scale(3)" fill="rgba(69, 69, 71, 0.41)"></use><use xlink:href="#SvgjsG2193" transform="translate(564, 141) scale(3)" fill="rgba(69, 69, 71, 0.41)"></use><use xlink:href="#SvgjsG2192" transform="translate(564, 282) scale(3)" fill="rgba(69, 69, 71, 0.41)"></use><use xlink:href="#SvgjsG2202" transform="translate(564, 423) scale(3)" fill="rgba(69, 69, 71, 0.41)"></use><use xlink:href="#SvgjsG2198" transform="translate(564, 564) scale(3)" fill="rgba(69, 69, 71, 0.41)"></use><use xlink:href="#SvgjsG2203" transform="translate(564, 705) scale(3)" fill="rgba(69, 69, 71, 0.41)"></use><use xlink:href="#SvgjsG2198" transform="translate(564, 846) scale(3)" fill="rgba(69, 69, 71, 0.41)"></use><use xlink:href="#SvgjsG2200" transform="translate(705, 0) scale(3)" fill="rgba(69, 69, 71, 0.41)"></use><use xlink:href="#SvgjsG2197" transform="translate(705, 141) scale(3)" fill="rgba(69, 69, 71, 0.41)"></use><use xlink:href="#SvgjsG2196" transform="translate(705, 282) scale(3)" fill="rgba(69, 69, 71, 0.41)"></use><use xlink:href="#SvgjsG2192" transform="translate(705, 423) scale(3)" fill="rgba(69, 69, 71, 0.41)"></use><use xlink:href="#SvgjsG2193" transform="translate(705, 564) scale(3)" fill="rgba(69, 69, 71, 0.41)"></use><use xlink:href="#SvgjsG2200" transform="translate(705, 705) scale(3)" fill="rgba(69, 69, 71, 0.41)"></use><use xlink:href="#SvgjsG2199" transform="translate(705, 846) scale(3)" fill="rgba(69, 69, 71, 0.41)"></use><use xlink:href="#SvgjsG2197" transform="translate(846, 0) scale(3)" fill="rgba(69, 69, 71, 0.41)"></use><use xlink:href="#SvgjsG2201" transform="translate(846, 141) scale(3)" fill="rgba(69, 69, 71, 0.41)"></use><use xlink:href="#SvgjsG2191" transform="translate(846, 282) scale(3)" fill="rgba(69, 69, 71, 0.41)"></use><use xlink:href="#SvgjsG2194" transform="translate(846, 423) scale(3)" fill="rgba(69, 69, 71, 0.41)"></use><use xlink:href="#SvgjsG2199" transform="translate(846, 564) scale(3)" fill="rgba(69, 69, 71, 0.41)"></use><use xlink:href="#SvgjsG2196" transform="translate(846, 705) scale(3)" fill="rgba(69, 69, 71, 0.41)"></use><use xlink:href="#SvgjsG2200" transform="translate(846, 846) scale(3)" fill="rgba(69, 69, 71, 0.41)"></use><use xlink:href="#SvgjsG2202" transform="translate(987, 0) scale(3)" fill="rgba(69, 69, 71, 0.41)"></use><use xlink:href="#SvgjsG2198" transform="translate(987, 141) scale(3)" fill="rgba(69, 69, 71, 0.41)"></use><use xlink:href="#SvgjsG2199" transform="translate(987, 282) scale(3)" fill="rgba(69, 69, 71, 0.41)"></use><use xlink:href="#SvgjsG2197" transform="translate(987, 423) scale(3)" fill="rgba(69, 69, 71, 0.41)"></use><use xlink:href="#SvgjsG2192" transform="translate(987, 564) scale(3)" fill="rgba(69, 69, 71, 0.41)"></use><use xlink:href="#SvgjsG2196" transform="translate(987, 705) scale(3)" fill="rgba(69, 69, 71, 0.41)"></use><use xlink:href="#SvgjsG2203" transform="translate(987, 846) scale(3)" fill="rgba(69, 69, 71, 0.41)"></use><use xlink:href="#SvgjsG2201" transform="translate(1128, 0) scale(3)" fill="rgba(69, 69, 71, 0.41)"></use><use xlink:href="#SvgjsG2191" transform="translate(1128, 141) scale(3)" fill="rgba(69, 69, 71, 0.41)"></use><use xlink:href="#SvgjsG2202" transform="translate(1128, 282) scale(3)" fill="rgba(69, 69, 71, 0.41)"></use><use xlink:href="#SvgjsG2193" transform="translate(1128, 423) scale(3)" fill="rgba(69, 69, 71, 0.41)"></use><use xlink:href="#SvgjsG2196" transform="translate(1128, 564) scale(3)" fill="rgba(69, 69, 71, 0.41)"></use><use xlink:href="#SvgjsG2196" transform="translate(1128, 705) scale(3)" fill="rgba(69, 69, 71, 0.41)"></use><use xlink:href="#SvgjsG2196" transform="translate(1128, 846) scale(3)" fill="rgba(69, 69, 71, 0.41)"></use><use xlink:href="#SvgjsG2200" transform="translate(1269, 0) scale(3)" fill="rgba(69, 69, 71, 0.41)"></use><use xlink:href="#SvgjsG2199" transform="translate(1269, 141) scale(3)" fill="rgba(69, 69, 71, 0.41)"></use><use xlink:href="#SvgjsG2201" transform="translate(1269, 282) scale(3)" fill="rgba(69, 69, 71, 0.41)"></use><use xlink:href="#SvgjsG2202" transform="translate(1269, 423) scale(3)" fill="rgba(69, 69, 71, 0.41)"></use><use xlink:href="#SvgjsG2199" transform="translate(1269, 564) scale(3)" fill="rgba(69, 69, 71, 0.41)"></use><use xlink:href="#SvgjsG2197" transform="translate(1269, 705) scale(3)" fill="rgba(69, 69, 71, 0.41)"></use><use xlink:href="#SvgjsG2191" transform="translate(1269, 846) scale(3)" fill="rgba(69, 69, 71, 0.41)"></use></g></defs></svg>