<svg xmlns:xlink="http://www.w3.org/1999/xlink" xmlns="http://www.w3.org/2000/svg" viewBox="0 0 120 120" width="120"  height="120" >
												<style type="text/css">
													.st0 {
														fill: #3A3A3A;
													}
												</style>
												<path class="st0" d="M119.7,61c-2.5,2.6-4.9,5.3-7.2,8.1c-0.2,0.3-0.3,0.5-0.3,0.9c0,3.6-0.1,7.2-0.3,10.7c0,0.4-0.2,0.8-0.6,1.1
												c-0.4,0.3-0.7,0.3-1.1,0.2c-3.3-1.3-6.6-2.4-10-3.5c-0.6-0.2-1-0.9-0.8-1.6l0.4-1.3c0.2-0.7,0.9-1.1,1.5-0.9c1,0.3,1.9,0.6,2.9,0.9
												c1.3,0.4,2.7-0.3,3.2-1.7l5.9-17.1c1.9,0.7,3.9,1.4,5.8,2.1c0.4,0.2,0.8,0.5,0.9,1C120.1,60.2,120,60.6,119.7,61z M102.1,45.9
												c-0.3-0.1-0.6-0.1-0.9-0.2l12.6-18.4c1-1.5,1.1-3.2,0.3-4.8c-0.8-1.6-2.3-2.5-4.1-2.5H10.6c-1.8,0-3.3,0.9-4.1,2.5
												c-0.8,1.6-0.7,3.3,0.3,4.8l12.5,18.4c-0.3,0.1-0.6,0.1-0.9,0.2L6,27.8c-1.2-1.7-1.3-3.8-0.3-5.7s2.8-2.9,4.9-2.9H110
												c2.1,0,3.9,1.1,4.9,2.9c1,1.8,0.8,4-0.3,5.7L102.1,45.9z M12.9,73.8c0.5,1.4,1.9,2.1,3.2,1.7c1-0.3,1.9-0.6,2.9-0.9
												c0.6-0.2,1.3,0.2,1.5,0.9l0.4,1.3c0.2,0.7-0.1,1.4-0.8,1.6c-3.4,1-6.7,2.2-10,3.5c-0.4,0.1-0.8,0.1-1.1-0.2
												c-0.3-0.3-0.6-0.6-0.6-1.1C8.3,77,8.2,73.5,8.2,69.9c0-0.3-0.1-0.6-0.3-0.9c-2.3-2.7-4.7-5.4-7.2-8.1c-0.3-0.3-0.4-0.8-0.3-1.2
												c0.1-0.4,0.4-0.8,0.9-1c1.9-0.7,3.8-1.5,5.8-2.1L12.9,73.8z M55,79.5c0-0.1,0.1-0.1,0.2-0.1l3.6,0l1.1-3.4c0-0.1,0.1-0.1,0.2-0.1
												c0.1,0,0.2,0.1,0.2,0.1l1.1,3.4l3.6,0c0.1,0,0.2,0.1,0.2,0.1c0,0.1,0,0.2-0.1,0.2l-2.9,2.1l1.1,3.4c0,0.1,0,0.2-0.1,0.2
												c0,0-0.1,0-0.1,0c0,0-0.1,0-0.1,0l-2.9-2.1l-2.9,2.1c-0.1,0.1-0.2,0.1-0.3,0s-0.1-0.2-0.1-0.2l1.1-3.4l-2.9-2.1
												C55.1,79.7,55,79.6,55,79.5z M33.6,32.1v0.8h-3.9v-0.8H33.6z M38.3,34.7V31c0-1.1,0.6-1.8,1.7-1.8c1.1,0,1.7,0.7,1.7,1.8v3.7
												c0,1.1-0.6,1.8-1.7,1.8C38.9,36.5,38.3,35.9,38.3,34.7z M40.6,34.8v-3.9c0-0.5-0.2-0.7-0.6-0.7c-0.4,0-0.6,0.2-0.6,0.7v3.9
												c0,0.5,0.2,0.7,0.6,0.7C40.4,35.5,40.6,35.3,40.6,34.8z M47.4,34.5v1.1c0,0.3,0,0.6,0.1,0.9h-1.1c-0.1-0.2-0.1-0.3-0.1-0.9v-1.1
												c0-0.7-0.2-0.9-0.7-0.9h-0.4v2.9H44v-7.2h1.7c1.2,0,1.7,0.5,1.7,1.7v0.6c0,0.7-0.2,1.2-0.7,1.5C47.2,33.2,47.4,33.7,47.4,34.5z
												 M46.3,31c0-0.5-0.2-0.7-0.6-0.7h-0.5v2.2h0.4c0.4,0,0.7-0.2,0.7-0.8V31z M50.9,29.3v7.2h-1.1v-7.2H50.9z M55,33.5v-1h1.6v2.3
												c0,1.1-0.6,1.8-1.7,1.8c-1.1,0-1.7-0.7-1.7-1.8V31c0-1.1,0.6-1.8,1.7-1.8c1.1,0,1.7,0.7,1.7,1.8v0.7h-1.1v-0.8
												c0-0.5-0.2-0.7-0.6-0.7c-0.4,0-0.6,0.2-0.6,0.7v3.9c0,0.5,0.2,0.7,0.6,0.7c0.4,0,0.6-0.2,0.6-0.7v-1.3H55z M60.1,29.3v7.2H59v-7.2
												H60.1z M66.1,29.3v7.2h-1.2l-1.4-5.2v5.2h-1v-7.2h1.4l1.2,4.3v-4.3H66.1z M69.4,35.1l-0.2,1.3h-1l1.1-7.2H71l1.1,7.2H71l-0.2-1.3
												H69.4z M70.1,30.5l-0.5,3.6h1.1L70.1,30.5z M75.4,29.3v6.2h1.9v1h-3v-7.2H75.4z M80.9,36.5c-1.1,0-1.7-0.7-1.7-1.8v-0.4h1.1v0.5
												c0,0.5,0.2,0.7,0.6,0.7c0.4,0,0.6-0.2,0.6-0.7c0-1.5-2.2-1.8-2.2-3.8c0-1.1,0.6-1.8,1.7-1.8c1.1,0,1.7,0.7,1.7,1.8v0.2h-1.1v-0.3
												c0-0.5-0.2-0.7-0.6-0.7c-0.4,0-0.6,0.2-0.6,0.7c0,1.5,2.2,1.8,2.2,3.8C82.6,35.9,82,36.5,80.9,36.5z M90.9,32.1v0.8H87v-0.8H90.9z
												 M113.2,53.2l-7,20.9c-0.2,0.7-1,1.1-1.6,0.9c-28.6-9.4-60.3-9.4-88.9,0c-0.6,0.2-1.4-0.2-1.6-0.9l-7-20.9c-0.2-0.7,0.2-1.5,1-1.7
												c33.6-11,70.6-11,104.2,0C113.1,51.7,113.5,52.5,113.2,53.2z M18.2,61.3c-0.2-0.7-0.9-1-1.6-0.8c-0.7,0.2-1.1,0.9-0.9,1.6
												c0.2,0.7,0.9,1,1.6,0.8C18,62.7,18.3,62,18.2,61.3z M27.4,62.7l-0.8-3.2c-0.1-0.3-0.2-0.4-0.5-0.4l-3.5-0.3l-0.5-1.9
												c-0.1-0.4,0.1-0.6,0.4-0.7l0.7-0.2c0.4-0.1,0.6,0.1,0.7,0.4l0.3,1.1c0,0.1,0.1,0.2,0.3,0.2l1.4-0.3c0.2,0,0.2-0.1,0.2-0.3l-0.4-1.5
												c-0.3-1.3-1.2-1.8-2.5-1.5l-1.5,0.4c-1.3,0.3-1.8,1.2-1.5,2.5l0.8,3.3c0.1,0.3,0.2,0.4,0.5,0.4l3.5,0.3l0.4,1.8
												c0.1,0.4-0.1,0.6-0.4,0.7l-0.7,0.2c-0.3,0.1-0.6,0-0.7-0.4l-0.3-1.1c0-0.2-0.1-0.2-0.3-0.2l-1.4,0.3c-0.1,0-0.2,0.1-0.2,0.3l0.3,1.5
												c0.3,1.3,1.2,1.8,2.5,1.5l1.6-0.4C27.2,64.9,27.8,64,27.4,62.7z M35.4,52c0-0.1-0.1-0.2-0.3-0.2L33.7,52c-0.1,0-0.2,0.1-0.2,0.3
												l0.8,4.5l-1.8,0.3l-0.8-4.5c0-0.1-0.1-0.2-0.3-0.2L30,52.7c-0.2,0-0.2,0.1-0.2,0.3l1.9,10.8c0,0.1,0.1,0.2,0.3,0.2l1.4-0.2
												c0.1,0,0.2-0.1,0.2-0.3l-0.8-4.5l1.8-0.3l0.8,4.5c0,0.1,0.1,0.2,0.3,0.2l1.4-0.2c0.2,0,0.2-0.1,0.2-0.3L35.4,52z M45.8,52.5
												c-0.1-1.3-0.9-2-2.3-1.8L42,50.9c-1.3,0.1-2,0.9-1.8,2.3l0.8,7.3c0.1,1.3,0.9,2,2.3,1.8l1.6-0.2c1.3-0.1,2-0.9,1.8-2.3L45.8,52.5z
												 M56,51.9c-0.1-1.3-0.8-2-2.1-2l-3.4,0.1c-0.1,0-0.2,0.1-0.2,0.2l0.5,10.9c0,0.1,0.1,0.2,0.2,0.2l1.5-0.1c0.2,0,0.2-0.1,0.2-0.2
												l-0.2-3.6l1.7-0.1c1.3-0.1,2-0.8,2-2.1L56,51.9z M66.4,49.9l-1.5,0c-0.2,0-0.2,0.1-0.2,0.2l-0.1,6l-0.1,0l-2-6.1
												c0-0.1-0.1-0.2-0.3-0.2l-1.4,0c-0.1,0-0.2,0.1-0.2,0.2L60.3,61c0,0.1,0.1,0.2,0.2,0.2l1.5,0c0.2,0,0.2-0.1,0.2-0.2l0.1-6l0.1,0
												l2,6.1c0,0.1,0.1,0.2,0.3,0.2l1.4,0c0.1,0,0.2-0.1,0.2-0.2l0.2-10.9C66.6,50,66.5,50,66.4,49.9z M75.9,50.8c0-0.1-0.1-0.2-0.2-0.2
												l-2-0.2c-0.1,0-0.2,0-0.3,0.2l-3.3,10.7c-0.1,0.2,0,0.2,0.2,0.3l1.5,0.1c0.1,0,0.2-0.1,0.2-0.2l0.6-2l2.5,0.2l0.2,2.1
												c0,0.1,0.1,0.2,0.2,0.2l1.5,0.1c0.2,0,0.2-0.1,0.2-0.2L75.9,50.8z M90.2,52.6l-1.9-0.3c-0.2,0-0.3,0-0.3,0.2l-2.7,6.7L84.9,52
												c0-0.2-0.1-0.3-0.3-0.3l-1.9-0.3c-0.2,0-0.3,0.1-0.3,0.2l-1.8,10.7c0,0.2,0.1,0.3,0.2,0.3l1.3,0.2c0.2,0,0.3-0.1,0.3-0.2l1-6.3
												l0.1,0l0.3,6.6c0,0.2,0.1,0.3,0.3,0.3l0.7,0.1c0.2,0,0.3,0,0.3-0.2l2.4-6.1l0.1,0l-1,6.3c0,0.2,0.1,0.3,0.2,0.3l1.3,0.2
												c0.2,0,0.3-0.1,0.3-0.2l1.7-10.7C90.5,52.8,90.4,52.6,90.2,52.6z M100.4,54.9l-5.1-1.2c-0.1,0-0.2,0-0.3,0.2l-2.5,10.6
												c0,0.1,0,0.2,0.2,0.3l5.1,1.2c0.2,0,0.2,0,0.3-0.2l0.3-1.4c0-0.2,0-0.2-0.2-0.3l-3.5-0.8l0.7-2.8l2.6,0.6c0.1,0,0.2,0,0.3-0.2
												l0.3-1.4c0-0.2,0-0.3-0.2-0.3l-2.6-0.6l0.7-2.8l3.5,0.8c0.2,0,0.2,0,0.3-0.2l0.3-1.4C100.6,55,100.5,54.9,100.4,54.9z M103.7,60.5
												c-0.7-0.2-1.4,0.2-1.6,0.8c-0.2,0.7,0.2,1.3,0.9,1.5c0.7,0.2,1.4-0.2,1.6-0.8C104.8,61.4,104.4,60.6,103.7,60.5z M74.5,53l0.5,5
												l-1.8-0.2L74.5,53z M53.7,55.7l-1.2,0.1l-0.2-3.8l1.3-0.1c0.4,0,0.6,0.2,0.6,0.5l0.1,2.7C54.2,55.4,54.1,55.7,53.7,55.7z M44.3,60.2
												l-0.8,0.1c-0.4,0-0.6-0.1-0.6-0.5l-0.7-6.5c0-0.4,0.1-0.6,0.5-0.6l0.8-0.1c0.4,0,0.6,0.1,0.6,0.5l0.7,6.5
												C44.8,60,44.6,60.2,44.3,60.2z M56.4,100.1c0.9,1.3,2.3,2,3.8,2c1.6,0,2.9-0.7,3.8-2L84,71c0.3,0.1,0.6,0.1,0.9,0.2l-20.1,29.4
												c-1.1,1.5-2.7,2.4-4.5,2.4c-1.9,0-3.5-0.9-4.5-2.4L35.6,71.1c0.3-0.1,0.6-0.1,0.9-0.2L56.4,100.1z" fill-opacity="0.7" fill="#FFFFFF"></path>
											</svg>