<svg xmlns:xlink="http://www.w3.org/1999/xlink" xmlns="http://www.w3.org/2000/svg" viewBox="0 0 120 120" width="120"  height="120" >
												<style type="text/css">
													.st0 {
														fill: #3A3A3A;
													}
												</style>
												<path class="st0" d="M119.8,60.4l-9.9,17.3l-0.2,0.3h-0.4h-5.3c-3.6,8.5-9.7,15.8-17.3,20.9c-7.6,5-16.7,8-26.5,8s-18.9-2.9-26.5-8
												C26.2,93.8,20.1,86.6,16.5,78h-5.3h-0.4l-0.2-0.3L0.8,60.4l-0.2-0.3l0.2-0.3l9.9-17.3l0.2-0.3h0.4h5.3c3.6-8.5,9.7-15.8,17.3-20.9
												c7.6-5,16.7-8,26.5-8s18.9,2.9,26.5,8c7.7,5.1,13.7,12.4,17.3,20.9h5.3h0.4l0.2,0.3l9.9,17.3l0.2,0.3L119.8,60.4z M34.6,97.9
												c7.3,4.9,16.2,7.8,25.7,7.8s18.4-2.9,25.7-7.8C93.3,93,99.2,86.1,102.7,78H86.5c-2.9,4.1-6.8,7.6-11.3,9.9
												c-4.5,2.3-9.5,3.7-14.9,3.7c-5.4,0-10.5-1.3-14.9-3.7c-4.5-2.4-8.4-5.8-11.3-9.9H17.9C21.4,86.1,27.3,93,34.6,97.9z M84.9,78h-6.8
												c-4.6,4.5-10.9,7.2-17.9,7.2c-7,0-13.3-2.8-17.9-7.2h-6.8c2.7,3.6,6.2,6.6,10.3,8.8c4.3,2.2,9.1,3.5,14.3,3.5c5.2,0,10-1.3,14.3-3.5
												C78.7,84.7,82.2,81.6,84.9,78z M86,22.3c-7.3-4.9-16.2-7.8-25.7-7.8s-18.4,2.9-25.7,7.8C27.3,27.2,21.4,34,17.9,42.1h16.1
												c2.9-4.1,6.8-7.6,11.3-9.9c4.5-2.3,9.5-3.7,14.9-3.7c5.4,0,10.5,1.3,14.9,3.7c4.5,2.4,8.4,5.8,11.3,9.9h16.1
												C99.2,34,93.3,27.2,86,22.3z M35.7,42.1h6.8c4.6-4.5,10.9-7.2,17.9-7.2c7,0,13.3,2.8,17.9,7.2h6.8c-2.7-3.6-6.2-6.6-10.3-8.8
												c-4.3-2.2-9.1-3.5-14.3-3.5c-5.2,0-10.1,1.3-14.3,3.5C41.9,35.5,38.4,38.5,35.7,42.1z M109,43.4h-4.3H85.8H60.3H34.8H16h-4.4
												L2.1,60.1l9.5,16.6H16h1h17.8h25.5h25.5h18.8h4.3l9.5-16.6L109,43.4z M111.6,59.1c0.6,0,1,0.4,1,1c0,0.5-0.4,1-1,1c-0.5,0-1-0.4-1-1
												C110.6,59.5,111,59.1,111.6,59.1z M105,69.1h-2.1c-0.6,0-0.9-0.3-1.1-0.8l-4.1-13.8l-0.1,0l0.3,2.5c0,3.6,0,7.2,0,10.7l1,0.6v0.8
												c-1.2,0-2.7,0-3.9,0v-0.8l1-0.6c0-4.8,0-9.7,0-14.5l-0.9-0.6v-0.7c1.2,0,1.8,0,2.9,0c1.1,0,1.3,0.1,1.6,1l2.4,7.7l1.1,4.8h0
												c0-1.3-0.1-2.9-0.1-4.2v-8l-0.9-0.6v-0.8c1.2,0,2.4,0,3.7,0v0.8l-0.9,0.6C105,58.5,105,63.8,105,69.1z M82.9,68.4l1.1-0.7
												c0-4.9,0-9.7,0-14.5l-0.9-0.6v-0.6c3,0,5.8,0,8.9,0v3.9h-1.2l-0.7-2.4h-3.4c0,2.1,0,4.3,0,6.5h2.4l0.6-1.4h0.8c0,1.2,0,3,0,4.2h-0.8
												l-0.6-1.3h-2.4c0,1.8,0,3.6,0,5.4c0,0.4-0.1,0.6-0.5,0.8v0.1c1.4,0,2.8,0,4.2,0l0.8-2.4h1.1v3.9c-3.1,0-6.2,0-9.4,0V68.4z
												 M76.8,66.8l-1.2-3.2c-0.5-1.3-0.9-1.7-2.4-1.7c0,1.5,0,4.1,0,5.6l1.1,0.7v0.7c-1.4,0-3.3,0-4.7,0v-0.7l1.1-0.7c0-4.8,0-9.7,0-14.5
												l-0.9-0.6v-0.7h5.1c2.7,0,4.9,1,4.9,4v2.2c0,2.1-1.2,3.3-2.8,3.6c0.7,0.4,1.1,0.9,1.3,1.6l1.2,3.2c0.2,0.7,0.7,1.6,1.5,1.5v1
												c-0.5,0.2-1.3,0.3-1.8,0.3C77.4,69.2,77.3,68.1,76.8,66.8z M77,58.1v-2.2c0-1.6-0.6-2.5-2.3-2.5h-1.6c0,2.7,0,4.5,0,7.2h1.6
												C76.4,60.5,77,59.6,77,58.1z M61.2,69.3c-3,0-5-1.8-5-4.6v-8.6c0-2.8,1.9-4.6,5-4.6c3.1,0,5,1.8,5,4.6v8.6
												C66.2,67.5,64.3,69.3,61.2,69.3z M63.7,56.1c0-1.6-0.8-3-2.4-3c-1.6,0-2.4,1-2.4,3v8.6c0,1.9,0.7,3,2.4,3c1.7,0,2.4-1.4,2.4-3V56.1z
												 M48.1,69.3c-2.4,0-4.5-1.2-4.5-3.8v-1.4h2.8v1.4c0,1.5,0.6,2.1,1.8,2.1c1.3,0,1.9-0.9,1.9-2.1v-2.1c0-3.2-6.3-1.9-6.3-6.2v-2.1
												c0-2.6,1.9-3.5,3.9-3.5c1,0,2,0.2,2.8,1.1h0.1l0.2-0.9h1.7c0,1.5,0,3.1,0,4.6H50v-1.3c0-1.2-0.7-1.9-1.8-1.9c-1.2,0-1.8,0.7-1.8,1.9
												v2.1c0,3,6.4,1.6,6.4,6.2v2.1C52.8,68.3,50.5,69.3,48.1,69.3z M35.3,69.3c-3,0-5-1.8-5-4.6v-8.6c0-2.8,1.9-4.6,5-4.6
												c3.1,0,5,1.8,5,4.6v8.6C40.3,67.5,38.4,69.3,35.3,69.3z M37.8,56.1c0-1.6-0.8-3-2.4-3c-1.6,0-2.4,1-2.4,3v8.6c0,1.9,0.7,3,2.4,3
												c1.7,0,2.4-1.4,2.4-3V56.1z M22.3,68.4l1.1-0.6V61h-4v6.8l1.1,0.6v0.7h-4.8v-0.7l1.1-0.6V53.2l-0.9-0.6v-0.7h4.4v0.7l-0.9,0.6v6.4h4
												v-6.4l-0.9-0.6v-0.7h4.4v0.7l-0.9,0.6v14.6l1.1,0.6v0.7h-4.7V68.4z M9,61.1c-0.5,0-1-0.4-1-1c0-0.5,0.4-1,1-1c0.6,0,1,0.4,1,1
												C10,60.6,9.6,61.1,9,61.1z M85.9,32.9c0-0.5,0.2-1,0.6-1.4c0.4-0.4,0.9-0.6,1.5-0.6c0.6,0,1,0.2,1.5,0.6c0.5,0.4,0.7,1,0.6,1.6
												l-0.8,0.1c0-0.4-0.1-0.8-0.4-1.1c-0.2-0.2-0.5-0.3-0.8-0.4c-0.3,0-0.6,0.1-0.9,0.4c-0.3,0.3-0.4,0.5-0.4,0.8c0,0.3,0.1,0.6,0.3,0.8
												c0.3,0.3,0.7,0.4,1.1,0.4l0,0.8c-0.7,0-1.2-0.1-1.6-0.6C86.1,33.9,85.9,33.4,85.9,32.9z M91,34.4l0.6-0.5l1.9,2.4l-0.6,0.5l-0.7-0.9
												l-2.5,1.9l-0.5-0.7l2.5-1.9L91,34.4z M83.8,31.2c-0.4,0.1-0.8-0.1-1.2-0.4c-0.4-0.3-0.6-0.7-0.7-1.1c-0.1-0.4,0.1-0.9,0.4-1.3
												l1.3-1.7l0.7,0.5L83,29c-0.2,0.2-0.3,0.5-0.3,0.7c0,0.2,0.1,0.4,0.3,0.6c0.2,0.1,0.4,0.2,0.6,0.1c0.2-0.1,0.4-0.2,0.6-0.5l1.3-1.7
												l0.7,0.5l-1.3,1.7C84.6,30.9,84.2,31.2,83.8,31.2z M79.7,28.3c-0.5,0.1-1.1,0-1.7-0.3l-1.2-0.6l1.9-3.4l1.2,0.7
												c0.6,0.3,1,0.7,1.2,1.2c0.2,0.5,0.1,1-0.2,1.5C80.6,27.8,80.2,28.2,79.7,28.3z M80.3,26c-0.1-0.3-0.3-0.5-0.7-0.7L79.1,25L78,27
												l0.5,0.3c0.4,0.2,0.7,0.3,1,0.2c0.3-0.1,0.5-0.3,0.7-0.6C80.3,26.6,80.4,26.3,80.3,26z M75,25.9c-0.5,0.2-1,0.2-1.6,0
												c-0.5-0.2-0.9-0.6-1.2-1.1c-0.2-0.5-0.2-1,0-1.5c0.2-0.5,0.6-0.9,1.1-1.1c0.5-0.2,1-0.2,1.6,0c0.5,0.2,0.9,0.6,1.2,1.1
												c0.2,0.5,0.2,1,0,1.5C75.9,25.3,75.5,25.7,75,25.9z M75.3,23.5c-0.1-0.3-0.3-0.5-0.6-0.6c-0.3-0.1-0.6-0.1-0.9,0.1
												c-0.3,0.1-0.5,0.4-0.6,0.7c-0.1,0.3-0.1,0.6,0,0.9c0.1,0.3,0.3,0.5,0.6,0.6c0.3,0.1,0.6,0.1,0.9,0c0.3-0.1,0.5-0.4,0.6-0.7
												C75.4,24.1,75.4,23.8,75.3,23.5z M69.7,23.2l0.7,1.6l-1.1-0.2l-0.6-1.4l-0.6-0.1l-0.3,1.2L67,24.1l0.9-3.8l1.5,0.3
												c0.6,0.1,1,0.3,1.2,0.6c0.2,0.3,0.3,0.6,0.2,1C70.5,22.8,70.2,23.2,69.7,23.2z M69.8,21.6c-0.1-0.1-0.3-0.2-0.6-0.2l-0.6-0.1
												l-0.3,1.1l0.6,0.1c0.3,0.1,0.5,0.1,0.6,0c0.1-0.1,0.2-0.2,0.3-0.4C69.9,21.8,69.8,21.7,69.8,21.6z M63.9,22.6l-0.5,0l-0.1,1.1
												l-0.9-0.1l0.4-3.9l1.4,0.1c0.6,0.1,1,0.2,1.3,0.5c0.3,0.3,0.4,0.6,0.3,1.1c0,0.5-0.2,0.8-0.5,1C64.9,22.6,64.4,22.6,63.9,22.6z
												 M64.7,20.7c-0.1-0.1-0.3-0.2-0.6-0.2l-0.5,0l-0.1,1.3l0.6,0.1c0.3,0,0.5,0,0.6-0.1c0.1-0.1,0.2-0.3,0.2-0.5
												C64.8,21,64.8,20.8,64.7,20.7z M56.9,21.2l-0.8,2.2l-0.5,0.1l-1.3-2l0.3,2.4L53.7,24l-0.5-3.9l1.2-0.1l1.3,2l0.8-2.2l1.2-0.1
												l0.5,3.9l-0.9,0.1L56.9,21.2z M50.4,24.9c-0.5,0.1-0.9,0.1-1.3-0.1c-0.4-0.2-0.7-0.6-0.8-1.1l-0.6-2.1l0.8-0.2l0.6,2.1
												c0.1,0.3,0.2,0.5,0.4,0.7c0.2,0.1,0.4,0.2,0.6,0.1c0.2-0.1,0.4-0.2,0.5-0.4c0.1-0.2,0.1-0.5,0-0.8l-0.6-2.1l0.8-0.2l0.6,2.1
												c0.2,0.5,0.1,1-0.1,1.4C51.2,24.5,50.9,24.7,50.4,24.9z M44.8,22.6l0.8-0.3l1.4,3.6l-0.8,0.3L44.8,22.6z M42.6,25.2l0.1,2.4
												l-0.5,0.2l-2-1.4l1.2,2.1L40.7,29l-1.9-3.4l1-0.6l1.9,1.4l-0.1-2.4l1-0.6l1.9,3.4l-0.8,0.4L42.6,25.2z M37.3,30.5l1.6-1.2l0.5,0.6
												L37,31.6l-2.4-3.1l2.3-1.7l0.5,0.6l-1.6,1.2l0.5,0.6l1.4-1l0.4,0.6l-1.4,1L37.3,30.5z M35.1,33.3L33.6,33l-0.4,0.4l0.9,0.9l-0.6,0.6
												l-2.7-2.8l1.1-1c0.4-0.4,0.8-0.6,1.2-0.7c0.3,0,0.7,0.1,1,0.4c0.4,0.4,0.5,0.9,0.3,1.4l1.7,0.3L35.1,33.3z M33.2,31.5
												c-0.1-0.1-0.3-0.2-0.4-0.2c-0.1,0-0.3,0.1-0.5,0.3l-0.5,0.5l0.8,0.8l0.5-0.4c0.2-0.2,0.3-0.4,0.3-0.5C33.4,31.8,33.3,31.6,33.2,31.5
												z M30.4,36.7l-0.3,0.4l0.9,0.7l-0.5,0.7l-3.1-2.4l0.9-1.1c0.4-0.5,0.7-0.7,1.1-0.8c0.4-0.1,0.7,0,1.1,0.3c0.4,0.3,0.6,0.6,0.6,1
												C30.9,35.9,30.7,36.3,30.4,36.7z M29.8,35.2c-0.2-0.1-0.3-0.2-0.5-0.1c-0.2,0-0.3,0.2-0.5,0.4l-0.3,0.4l1,0.8l0.4-0.5
												c0.2-0.2,0.3-0.4,0.2-0.6C30,35.5,29.9,35.3,29.8,35.2z M35.4,87.2c0.1,0.2,0.2,0.5,0.2,0.7l-0.8,0.2c-0.1-0.4-0.2-0.7-0.5-1
												C34.3,87,34.2,87,34.1,87c-0.1,0-0.2,0-0.3,0.1c-0.1,0.1-0.1,0.2-0.1,0.3c0,0.1,0.1,0.3,0.4,0.7c0.2,0.3,0.3,0.6,0.3,0.9
												c0,0.3-0.1,0.5-0.3,0.8c-0.2,0.3-0.5,0.4-0.9,0.3c-0.3,0-0.7-0.2-1-0.5c-0.5-0.4-0.7-1-0.7-1.6l0.8-0.1c0.1,0.6,0.2,1,0.5,1.2
												c0.1,0.1,0.2,0.2,0.3,0.2c0.1,0,0.2,0,0.3-0.1c0.1-0.1,0.1-0.2,0.1-0.3c0-0.1-0.1-0.3-0.3-0.5c-0.3-0.4-0.4-0.7-0.4-1
												c0-0.3,0.1-0.5,0.3-0.8c0.3-0.3,0.5-0.4,0.9-0.3c0.3,0,0.6,0.2,0.9,0.5C35.1,86.8,35.3,87,35.4,87.2z M30.9,83.5l-0.6,0.5l1.1,1.3
												l-0.6,0.5l-1.1-1.3L29.1,85l1.3,1.5l-0.6,0.5l-1.8-2.2l3-2.5l1.8,2.2L32.1,85L30.9,83.5z M36.5,89.1l0.5-0.6l2.5,1.8L39,91l-0.9-0.7
												l-1.9,2.5l-0.7-0.5l1.9-2.5L36.5,89.1z M42.3,92l-0.5,4.2L41,95.8l0.1-0.9L39.6,94l-0.7,0.5l-0.8-0.5l3.4-2.5L42.3,92z M40.3,93.6
												l0.9,0.5l0.1-1.2L40.3,93.6z M46.4,94c0.2,0.1,0.4,0.2,0.6,0.3c0.2,0.1,0.3,0.3,0.3,0.4c0.1,0.3,0.1,0.5,0,0.7
												c-0.1,0.3-0.3,0.5-0.5,0.5c-0.1,0-0.1,0-0.2,0c0,0-0.1,0-0.2,0c0.2,0.1,0.3,0.3,0.4,0.5c0.1,0.2,0.1,0.4,0,0.6
												c-0.1,0.2-0.3,0.4-0.5,0.6c-0.3,0.1-0.7,0.1-1.2-0.1L43.5,97l1.5-3.6L46.4,94z M46.4,95.2c0.1-0.2,0.1-0.3,0-0.4
												c-0.1-0.1-0.2-0.2-0.5-0.3l-0.4-0.2l-0.3,0.8l0.4,0.2c0.2,0.1,0.4,0.1,0.5,0.1C46.2,95.5,46.3,95.4,46.4,95.2z M44.6,96.6l0.6,0.2
												c0.2,0.1,0.4,0.1,0.6,0.1c0.1,0,0.2-0.1,0.3-0.3c0.1-0.2,0.1-0.3-0.1-0.4c-0.1-0.1-0.3-0.2-0.6-0.3l-0.5-0.2L44.6,96.6z M50.2,95.3
												l-0.8,3l1.6,0.4l-0.2,0.7l-2.5-0.7l1-3.7L50.2,95.3z M54.3,96.2l-0.7,3.8l-0.9-0.2l0.7-3.8L54.3,96.2z M57.3,99.7
												c0.2,0,0.3,0,0.4-0.1c0.1-0.1,0.1-0.2,0.2-0.3c0-0.1,0-0.2-0.1-0.3c-0.1-0.1-0.3-0.2-0.6-0.3c-0.4-0.1-0.8-0.3-1-0.5
												c-0.2-0.2-0.3-0.5-0.3-0.8c0-0.4,0.2-0.6,0.5-0.8c0.3-0.2,0.6-0.3,1-0.2c0.3,0,0.5,0.1,0.8,0.2c0.3,0.1,0.5,0.3,0.7,0.4l-0.5,0.6
												c-0.3-0.3-0.7-0.4-1-0.5c-0.1,0-0.3,0-0.4,0.1c-0.1,0.1-0.1,0.1-0.1,0.3c0,0.1,0,0.2,0.1,0.3c0.1,0.1,0.3,0.2,0.7,0.3
												c0.4,0.1,0.6,0.3,0.8,0.5c0.2,0.2,0.3,0.5,0.2,0.8c0,0.3-0.2,0.6-0.5,0.8c-0.3,0.2-0.6,0.3-1.1,0.2c-0.6,0-1.2-0.3-1.6-0.8l0.6-0.6
												C56.6,99.5,57,99.7,57.3,99.7z M61.6,98.3l1.6-0.1L63,96.6l0.9,0l0.2,3.9l-0.9,0l-0.1-1.5L61.6,99l0.1,1.5l-0.9,0l-0.2-3.9l0.9,0
												L61.6,98.3z M68.7,96.5l-1.9,0.4l0.1,0.8l1.7-0.3l0.1,0.7L67,98.4l0.1,0.8l2-0.4l0.1,0.8l-2.8,0.5l-0.7-3.8l2.8-0.5L68.7,96.5z
												 M73.2,94.9c0.5,0.2,0.8,0.6,1,1.2c0.2,0.6,0.2,1.1-0.1,1.5c-0.2,0.4-0.7,0.8-1.4,1l-1.3,0.4l-1.2-3.7l1.3-0.4
												C72.2,94.7,72.7,94.7,73.2,94.9z M72,98.1l0.5-0.2c0.4-0.1,0.6-0.3,0.8-0.6c0.1-0.3,0.2-0.6,0-0.9c-0.1-0.4-0.3-0.6-0.6-0.7
												c-0.3-0.1-0.6-0.1-1,0l-0.5,0.1L72,98.1z M78.3,91.9c0.3-0.2,0.6-0.2,0.9-0.2c0.3,0.1,0.6,0.3,0.8,0.6c0.1,0.2,0.1,0.4,0.1,0.6
												c0,0.2-0.1,0.5-0.2,0.9l-0.3,1l1.4-0.7l0.4,0.7l-2.4,1.3l-0.3-0.6l0.4-1.6c0.1-0.3,0.1-0.6,0.2-0.7c0-0.2,0-0.3-0.1-0.4
												c-0.1-0.1-0.2-0.2-0.3-0.2c-0.1,0-0.2,0-0.4,0c-0.2,0.1-0.3,0.4-0.4,0.8l-0.8,0c0-0.3,0.1-0.6,0.2-0.8C77.8,92.3,78,92.1,78.3,91.9z
												 M82.1,89.5c0.4-0.3,0.9-0.4,1.3-0.3c0.4,0.1,0.8,0.4,1.2,0.9c0.4,0.5,0.5,1,0.5,1.4c0,0.5-0.2,0.8-0.7,1.2
												c-0.4,0.3-0.9,0.4-1.3,0.3c-0.4-0.1-0.8-0.4-1.2-0.9c-0.4-0.5-0.5-1-0.5-1.4C81.4,90.2,81.7,89.8,82.1,89.5z M82.7,91.6
												c0.2,0.3,0.5,0.5,0.7,0.6c0.2,0.1,0.5,0.1,0.7-0.1c0.2-0.2,0.3-0.4,0.3-0.6c0-0.3-0.2-0.6-0.4-0.9c-0.2-0.3-0.5-0.5-0.7-0.6
												s-0.5-0.1-0.7,0.1c-0.2,0.2-0.3,0.4-0.3,0.6C82.3,91,82.5,91.3,82.7,91.6z M87,86.1c0.4,0.1,0.9,0.3,1.3,0.8
												c0.4,0.4,0.7,0.9,0.7,1.3c0.1,0.4-0.1,0.9-0.5,1.2c-0.4,0.4-0.8,0.5-1.3,0.4c-0.4-0.1-0.9-0.3-1.3-0.8c-0.4-0.4-0.7-0.9-0.7-1.3
												c-0.1-0.4,0.1-0.9,0.5-1.2C86.1,86.2,86.5,86,87,86.1z M86.1,87.7c0.1,0.3,0.2,0.5,0.5,0.8c0.3,0.3,0.5,0.5,0.8,0.6
												c0.3,0.1,0.5,0,0.7-0.1c0.2-0.2,0.2-0.4,0.2-0.7c-0.1-0.3-0.2-0.5-0.5-0.8c-0.3-0.3-0.5-0.5-0.8-0.6c-0.3-0.1-0.5,0-0.7,0.1
												C86,87.2,86,87.4,86.1,87.7z M88.6,84.9c-0.1-0.3-0.1-0.6-0.1-0.9c0-0.3,0.1-0.5,0.4-0.8c0.2-0.3,0.5-0.4,0.8-0.5
												c0.3-0.1,0.6,0,0.9,0.3c0.2,0.1,0.3,0.3,0.4,0.5c0.1,0.2,0.1,0.5,0.2,0.9l0.1,1l1-1.2l0.6,0.5L91,86.8l-0.5-0.4l-0.2-1.6
												c0-0.3-0.1-0.6-0.1-0.7c0-0.2-0.1-0.3-0.2-0.4c-0.1-0.1-0.2-0.1-0.3-0.1c-0.1,0-0.2,0.1-0.3,0.2c-0.2,0.2-0.2,0.5,0,0.9L88.6,84.9z" fill-opacity="0.7" fill="#FFFFFF"></path>
											</svg>