<svg xmlns:xlink="http://www.w3.org/1999/xlink" xmlns="http://www.w3.org/2000/svg" viewBox="0 0 120 120" width="120"  height="120" >
												<style type="text/css">
													.st0 {
														fill: #3A3A3A;
													}
												</style>
												<path class="st0" d="M119.9,53.8c-0.1,0.4-0.4,0.8-0.7,1.2c-7.5,8.2-16.7,14.8-26.8,19.3c-10.1,4.5-21.2,6.8-32.2,6.8
												c-11,0-22.1-2.3-32.2-6.8C17.8,69.8,8.7,63.2,1.2,55c-0.3-0.4-0.6-0.7-0.7-1.2c-0.1-0.4-0.2-0.9-0.1-1.3c0.1-0.4,0.2-0.8,0.5-1.1
												c0.2-0.3,0.6-0.5,1-0.7c2.6-1,5.2-2.1,7.7-3.3c0.1,0,0.2-0.1,0.3-0.2c0.1-0.1,0.1-0.1,0.2-0.2c1.4-2.4,2.8-4.8,4.3-7.1
												c0.2-0.3,0.5-0.6,0.8-0.8c0.3-0.2,0.7-0.4,1.1-0.4c0.4-0.1,0.7,0,1.1,0.1c0.3,0.1,0.6,0.3,0.8,0.5c5.4,5.9,11.9,10.6,19.2,13.8
												c7.2,3.2,15.1,4.9,23,4.8c7.9,0,15.8-1.6,23-4.8c7.2-3.2,13.8-7.9,19.2-13.8c0.2-0.3,0.5-0.4,0.8-0.5c0.3-0.1,0.7-0.1,1.1-0.1
												c0.4,0.1,0.7,0.2,1.1,0.4c0.3,0.2,0.6,0.5,0.8,0.8c1.5,2.3,2.9,4.7,4.3,7.1c0.1,0.1,0.1,0.2,0.2,0.2l0,0c0.1,0.1,0.1,0.1,0.2,0.1
												c2.5,1.2,5.1,2.3,7.7,3.3c0.4,0.1,0.7,0.4,1,0.7c0.2,0.3,0.4,0.7,0.5,1.1C120,53,120,53.4,119.9,53.8z M119,51.9
												c-0.2-0.2-0.4-0.4-0.7-0.5c-2.6-1-5.1-2.1-7.6-3.3c-0.2-0.1-0.3-0.2-0.4-0.3l-0.2-0.2l0,0c0-0.1-0.1-0.1-0.1-0.2
												c-1.3-2.4-2.7-4.8-4.2-7.1c-0.2-0.3-0.4-0.5-0.6-0.6c-0.2-0.2-0.5-0.3-0.8-0.3c-0.3,0-0.6,0-0.8,0c-0.2,0.1-0.5,0.2-0.6,0.4
												c-5.4,5.9-12.1,10.7-19.4,13.9c-7.3,3.2-15.3,4.9-23.3,4.9c-8,0-16-1.7-23.3-4.9c-7.3-3.2-13.9-8-19.4-13.9
												c-0.2-0.2-0.4-0.3-0.6-0.4c-0.2-0.1-0.5-0.1-0.8,0c-0.3,0.1-0.6,0.2-0.8,0.3s-0.5,0.4-0.6,0.6c-1.5,2.3-2.9,4.7-4.2,7.1
												c-0.1,0.2-0.2,0.3-0.3,0.4C10,47.9,9.9,48,9.7,48c-2.5,1.2-5,2.3-7.6,3.3c-0.3,0.1-0.5,0.3-0.7,0.5c-0.2,0.2-0.3,0.5-0.4,0.8
												c0,0.3,0,0.7,0.1,1c0.1,0.3,0.3,0.6,0.5,0.9c7.4,8.1,16.5,14.7,26.6,19.1c10,4.5,21,6.8,32,6.7c10.9,0,21.9-2.3,32-6.7
												c10.1-4.4,19.1-11,26.6-19.1c0.2-0.3,0.4-0.6,0.5-0.9c0.1-0.3,0.1-0.6,0.1-1C119.3,52.4,119.2,52.1,119,51.9z M107.2,50.8
												c-0.3-0.4-0.3-0.9,0-1.3c0.4-0.3,0.9-0.3,1.3,0c0.3,0.4,0.3,0.9,0,1.3C108.1,51.2,107.5,51.1,107.2,50.8z M106.5,58.5l-2.5,2
												c-0.1,0.1-0.2,0.1-0.3,0l-6.3-8.1c-0.1-0.1-0.1-0.2,0-0.3l2.5-2c1-0.8,1.9-0.7,2.7,0.3l4.2,5.4C107.5,56.8,107.4,57.7,106.5,58.5z
												 M105.2,56.6l-3.7-4.8c-0.2-0.3-0.5-0.3-0.8-0.1l-1,0.8l4.4,5.7l1-0.8C105.4,57.1,105.4,56.9,105.2,56.6z M99,63.9l-1.1,0.7
												c-0.1,0.1-0.2,0.1-0.3,0l-4.6-4l-0.1,0l2.8,4.9c0.1,0.1,0,0.2-0.1,0.3l-1.2,0.7c-0.1,0.1-0.2,0-0.3-0.1l-5-9c-0.1-0.1,0-0.2,0.1-0.3
												l1.1-0.7c0.1-0.1,0.2-0.1,0.3,0l4.5,4l0.1,0l-2.8-4.9c-0.1-0.1,0-0.2,0.1-0.3l1.2-0.7c0.1-0.1,0.2,0,0.3,0.1l5,9
												C99.1,63.7,99.1,63.8,99,63.9z M89.2,69l-1.3,0.5c-0.1,0-0.2,0-0.3-0.1l-1-1.7l-2.2,0.8l0.3,2c0,0.1,0,0.2-0.1,0.3l-1.3,0.5
												c-0.1,0.1-0.2,0-0.2-0.2l-1.5-10.4c0-0.1,0-0.2,0.1-0.3l1.7-0.7c0.1,0,0.2,0,0.3,0.1l5.7,8.9C89.4,68.8,89.4,68.9,89.2,69z
												 M83.3,62.3l0.8,4.7l1.6-0.6L83.3,62.3z M76.6,73c-0.1,0-0.2,0-0.3-0.1l-1.6-3.1l-0.9,0.2l0.7,3.3c0,0.1,0,0.2-0.2,0.3l-1.3,0.3
												c-0.1,0-0.2,0-0.3-0.2l-2.1-10.1c0-0.1,0-0.2,0.2-0.3l3.3-0.7c1.2-0.3,2,0.3,2.3,1.5l0.7,3.2c0.2,0.9,0,1.5-0.6,1.9l1.6,3.2
												c0.1,0.2,0,0.2-0.1,0.3L76.6,73z M74.7,64.8c-0.1-0.3-0.3-0.5-0.6-0.4l-1.3,0.3l0.7,3.5l1.3-0.3c0.3-0.1,0.5-0.3,0.4-0.6L74.7,64.8z
												 M65.5,74.7l-3.2,0.2c-0.1,0-0.2-0.1-0.2-0.2l-0.6-10.3c0-0.1,0.1-0.2,0.2-0.2l3.2-0.2c1.2-0.1,2,0.6,2,1.8l0.1,2.5
												c0,0.5-0.3,0.9-0.8,1l0,0c0.5,0.1,0.9,0.4,0.9,0.9l0.1,2.5C67.3,73.9,66.7,74.6,65.5,74.7z M65.1,66.3c0-0.3-0.2-0.5-0.6-0.5
												l-1.2,0.1l0.2,2.7l1.2-0.1c0.3,0,0.5-0.2,0.5-0.6L65.1,66.3z M65.4,70.8c0-0.3-0.2-0.5-0.6-0.5l-1.2,0.1l0.2,2.7L65,73
												c0.3,0,0.5-0.2,0.5-0.6L65.4,70.8z M54.6,74.7l-1.5-0.1c-1.2-0.1-1.9-0.8-1.7-2.1l0.6-6.8c0.1-1.3,0.8-1.9,2.1-1.8l1.5,0.1
												c1.2,0.1,1.8,0.8,1.7,2.1l-0.6,6.8C56.6,74.2,55.9,74.8,54.6,74.7z M55,65.7l-0.8-0.1c-0.3,0-0.5,0.1-0.6,0.5l-0.5,6.2
												c0,0.4,0.1,0.6,0.5,0.6l0.8,0.1c0.3,0,0.5-0.1,0.6-0.5l0.5-6.2C55.6,65.9,55.4,65.7,55,65.7z M47.3,68.2c-0.2,0.9-0.7,1.4-1.3,1.5
												l0.1,3.6c0,0.2-0.1,0.2-0.2,0.2l-1.3-0.3c-0.1,0-0.2-0.1-0.2-0.2l-0.1-3.5l-0.9-0.2l-0.8,3.3c0,0.1-0.1,0.2-0.3,0.2l-1.3-0.3
												c-0.1,0-0.2-0.1-0.2-0.3l2.3-10c0-0.1,0.1-0.2,0.3-0.2l3.2,0.8c1.2,0.3,1.7,1.1,1.4,2.3L47.3,68.2z M45.7,64.3L44.5,64l-0.8,3.5
												l1.3,0.3c0.3,0.1,0.6-0.1,0.6-0.4l0.6-2.5C46.2,64.6,46.1,64.4,45.7,64.3z M39,62.2c0,0.1-0.1,0.2-0.3,0.1l-1.4-0.6l-3.1,8.1
												C34.1,70,34,70.1,33.8,70l-1.3-0.5c-0.1,0-0.2-0.1-0.1-0.3l3.1-8.1l-1.4-0.6c-0.1,0-0.2-0.2-0.1-0.3l0.5-1.2c0-0.1,0.1-0.2,0.3-0.1
												l4.5,1.8c0.1,0.1,0.2,0.2,0.1,0.3L39,62.2z M30.4,58.5c-0.1,0.1-0.2,0.2-0.3,0.1L27.2,57l-1.3,2.3l2.2,1.3c0.1,0.1,0.1,0.2,0.1,0.3
												L27.6,62c-0.1,0.1-0.2,0.2-0.3,0.1l-2.2-1.3l-1.3,2.4l2.9,1.7c0.1,0.1,0.2,0.2,0.1,0.3L26,66.3c-0.1,0.1-0.2,0.2-0.3,0.1l-4.2-2.4
												c-0.1-0.1-0.1-0.2-0.1-0.3l5-9c0.1-0.1,0.2-0.1,0.3-0.1l4.2,2.4c0.1,0.1,0.1,0.2,0.1,0.3L30.4,58.5z M20.1,56.4
												c-0.5,0.7-1.2,1-1.8,0.8l-1.4,3.3c-0.1,0.2-0.2,0.2-0.3,0.1l-1.1-0.9c-0.1-0.1-0.1-0.2-0.1-0.3l1.4-3.2L16,55.6L14,58.3
												c-0.1,0.1-0.2,0.1-0.3,0l-1.1-0.9c-0.1-0.1-0.1-0.2,0-0.3l6.3-8.1c0.1-0.1,0.2-0.1,0.3,0l2.6,2.1c1,0.8,1.1,1.7,0.3,2.7L20.1,56.4z
												 M20.3,52.2l-1-0.8l-2.2,2.8l1,0.8c0.3,0.2,0.5,0.2,0.7-0.1l1.5-2C20.6,52.7,20.6,52.4,20.3,52.2z M11.9,50.8
												c-0.4-0.4-0.4-0.9,0-1.3c0.4-0.4,0.9-0.4,1.3,0c0.4,0.3,0.4,0.9,0,1.3C12.8,51.1,12.3,51.2,11.9,50.8z M60.2,53.1
												c-9.7,0-17.5-7.9-17.5-17.7c0-9.8,7.8-17.7,17.5-17.7c9.7,0,17.5,7.9,17.5,17.7C77.7,45.2,69.8,53.1,60.2,53.1z M60.2,19.7
												c-8.6,0-15.6,7.1-15.6,15.8c0,8.7,7,15.8,15.6,15.8s15.6-7.1,15.6-15.8C75.8,26.7,68.8,19.7,60.2,19.7z M67.1,41.3H53.3
												c-0.4,0-0.8-0.2-0.9-0.6l-3-7c-0.2-0.4-0.1-0.8,0.2-1.1c0.3-0.3,0.7-0.4,1.1-0.3l4.6,1.7l4.1-8.2c0.2-0.3,0.5-0.6,0.9-0.6
												c0.4,0,0.7,0.2,0.9,0.6l4.1,8.2l4.6-1.7c0.4-0.1,0.8,0,1.1,0.3c0.3,0.3,0.3,0.7,0.2,1.1l-3,7C67.9,41.1,67.5,41.3,67.1,41.3z
												 M53.3,42.3h13.8c0.5,0,1,0.5,1,1c0,0.5-0.4,1-1,1H53.3c-0.5,0-1-0.4-1-1C52.3,42.7,52.7,42.3,53.3,42.3z M29.1,93
												c0.3,0,0.6,0.1,0.8,0.2c0.1,0.1,0.2,0.2,0.3,0.3c-0.2,0.2-0.3,0.4-0.3,0.6c0,0.3,0.1,0.5,0.5,0.5c0.5,0,0.9-0.6,1.2-1.8
												c0.1-0.3,0.2-0.7,0.2-1c-0.3,0.4-0.9,0.6-1.7,0.6c-0.5,0-1-0.1-1.3-0.4c-0.3-0.3-0.5-0.7-0.5-1.3c0-0.4,0.1-0.8,0.2-1.2
												c0.1-0.4,0.3-0.8,0.6-1.2c0.3-0.4,0.6-0.7,1-0.9c0.4-0.2,0.8-0.4,1.3-0.4c0.5,0,0.8,0.1,1.1,0.2l2.2-0.2L34,91.4
												c-0.3,1.5-0.7,2.5-1.2,3.1c-0.5,0.6-1.3,0.8-2.4,0.8c-0.8,0-1.4-0.1-1.9-0.4c-0.5-0.3-0.7-0.6-0.7-1c0-0.3,0.1-0.6,0.4-0.7
												C28.4,93,28.7,93,29.1,93z M32.5,87.7c0,0-0.1,0-0.1,0c-0.1,0-0.2,0-0.3,0c-0.5,0-0.8,0.4-1.1,1.1c-0.2,0.6-0.3,1.3-0.3,2
												c0,0.5,0.1,0.8,0.4,0.8c0.2,0,0.4-0.1,0.5-0.3c0.1-0.2,0.2-0.4,0.3-0.6L32.5,87.7z M36,87.2l2.3-0.2l-0.8,4.4c0,0.2,0,0.3,0,0.4
												c0,0.4,0.1,0.7,0.4,0.7c0.3,0,0.6-0.2,0.8-0.6c0.1-0.1,0.1-0.3,0.1-0.4l0.8-4.2l2.2-0.2l-0.8,4.5c0,0.1,0,0.2,0,0.4
												c0,0.1,0,0.3,0.1,0.4c0.1,0.1,0.2,0.2,0.4,0.2c0,0.2-0.1,0.3-0.3,0.5c-0.3,0.3-0.7,0.4-1,0.4s-0.6-0.1-0.9-0.2
												c-0.2-0.1-0.3-0.3-0.4-0.5c-0.4,0.5-1,0.7-1.9,0.7c-0.5,0-0.9-0.1-1.2-0.4c-0.3-0.3-0.5-0.6-0.5-1c0-0.2,0-0.4,0-0.5L36,87.2z
												 M48.7,102.3h-8.1V102h8.1V102.3z M48.5,92.4c-0.1,0.3-0.2,0.5-0.5,0.6c-0.3,0.2-0.6,0.2-0.9,0.2s-0.6-0.1-0.8-0.2
												c-0.2-0.1-0.3-0.3-0.4-0.5c-0.1,0.2-0.3,0.3-0.6,0.5c-0.3,0.1-0.6,0.2-0.9,0.2c-0.3,0-0.6,0-0.9-0.1c-0.3-0.1-0.5-0.2-0.7-0.4
												c-0.2-0.2-0.3-0.5-0.4-0.8c-0.1-0.3-0.1-0.7-0.1-1.2c0-0.5,0.1-1,0.3-1.5c0.2-0.5,0.4-0.9,0.7-1.2c0.7-0.7,1.5-1.1,2.6-1.1
												c0.4,0,0.7,0.1,1,0.2l1.9-0.2L48,91.5c0,0.1,0,0.2,0,0.4c0,0.2,0.1,0.3,0.2,0.4C48.2,92.4,48.3,92.4,48.5,92.4z M46,87.7
												c-0.2,0-0.3,0-0.4,0.1c-0.1,0.1-0.2,0.2-0.3,0.3c-0.1,0.1-0.2,0.3-0.2,0.6c-0.1,0.2-0.2,0.7-0.3,1.3c-0.1,0.6-0.2,1.2-0.2,1.6
												c0,0.4,0,0.7,0.1,0.9c0.1,0.1,0.2,0.2,0.3,0.2c0.2,0,0.5-0.1,0.6-0.3c0.2-0.2,0.3-0.6,0.4-1l0.6-3.3C46.3,87.8,46.1,87.7,46,87.7z
												 M52.2,87L52,88.2c0.4-0.8,1-1.2,1.8-1.2c0.4,0,0.8,0.1,1,0.3c0.2,0.2,0.4,0.6,0.4,1c0,0.5-0.2,0.8-0.5,1.1C54.4,89.8,54,90,53.5,90
												c-0.2,0-0.4,0-0.5-0.1c0.3-0.5,0.4-1,0.4-1.5c0-0.3-0.1-0.5-0.4-0.5c-0.2,0-0.4,0.2-0.6,0.5c-0.2,0.3-0.3,0.7-0.4,1.1l-0.6,3.6
												l-2.3,0.2l1.2-6.1L52.2,87z M52.2,101.3h-0.8v0.9h0.7v0.4h-0.7v0.9h0.8v0.4h-1.3v-3.1h1.3V101.3z M53.6,103.3c0,0.2,0.1,0.3,0.2,0.3
												c0.2,0,0.3-0.1,0.3-0.3c0-0.6-0.9-0.8-0.9-1.6c0-0.5,0.2-0.8,0.7-0.8c0.5,0,0.7,0.3,0.7,0.8v0.1h-0.5v-0.1c0-0.2-0.1-0.3-0.2-0.3
												c-0.2,0-0.2,0.1-0.2,0.3c0,0.6,0.9,0.8,0.9,1.6c0,0.5-0.2,0.8-0.7,0.8c-0.5,0-0.7-0.3-0.7-0.8v-0.2h0.5V103.3z M56.3,88.1
												c0.7-0.7,1.5-1.1,2.6-1.1c0.4,0,0.7,0.1,1,0.2l1.9-0.2L61,91.5c0,0.1,0,0.2,0,0.4c0,0.2,0.1,0.3,0.2,0.4c0.1,0.1,0.2,0.2,0.4,0.2
												c-0.1,0.3-0.2,0.5-0.5,0.6c-0.3,0.2-0.6,0.2-0.9,0.2s-0.6-0.1-0.8-0.2c-0.2-0.1-0.3-0.3-0.4-0.5c-0.1,0.2-0.3,0.3-0.6,0.5
												c-0.3,0.1-0.6,0.2-0.9,0.2c-0.3,0-0.7,0-0.9-0.1c-0.3-0.1-0.5-0.2-0.7-0.4c-0.2-0.2-0.3-0.5-0.4-0.8c-0.1-0.3-0.1-0.7-0.1-1.2
												c0-0.5,0.1-1,0.3-1.5C55.8,88.8,56,88.4,56.3,88.1z M57.6,92.4c0.1,0.1,0.2,0.2,0.3,0.2c0.2,0,0.5-0.1,0.6-0.3
												c0.2-0.2,0.3-0.6,0.4-1l0.6-3.3c-0.2-0.1-0.3-0.2-0.5-0.2c-0.2,0-0.3,0-0.4,0.1c-0.1,0.1-0.2,0.2-0.3,0.3c-0.1,0.1-0.2,0.3-0.2,0.6
												c-0.1,0.2-0.2,0.7-0.3,1.3c-0.1,0.6-0.2,1.2-0.2,1.6C57.5,92,57.5,92.2,57.6,92.4z M56.9,101.3h-0.5v2.7h-0.5v-2.7h-0.5v-0.4h1.5
												V101.3z M59.3,101.7v1.6c0,0.5-0.2,0.8-0.7,0.8h-0.8v-3.1h0.8C59,100.9,59.3,101.2,59.3,101.7z M58.3,101.3v2.2h0.3
												c0.2,0,0.2-0.1,0.2-0.3v-1.6c0-0.2-0.1-0.3-0.2-0.3H58.3z M61.6,100.9c0.5,0,0.7,0.3,0.7,0.8c0,1-1,1.4-1,1.9h0.9v0.4h-1.4v-0.4
												c0-0.9,1-1.1,1-2c0-0.3-0.1-0.4-0.2-0.4c-0.2,0-0.2,0.1-0.2,0.3v0.3h-0.5v-0.3C60.9,101.1,61.2,100.9,61.6,100.9z M64,100.9
												c0.5,0,0.7,0.3,0.7,0.8v1.6c0,0.5-0.3,0.8-0.7,0.8c-0.5,0-0.7-0.3-0.7-0.8v-1.6C63.3,101.1,63.6,100.9,64,100.9z M63.8,103.3
												c0,0.2,0.1,0.3,0.2,0.3c0.2,0,0.2-0.1,0.2-0.3v-1.7c0-0.2-0.1-0.3-0.2-0.3c-0.2,0-0.2,0.1-0.2,0.3V103.3z M62.2,93.3l1.2-6.1
												l1.9-0.2L65,88.1c0.4-0.7,1.1-1.1,2.2-1.1c0.5,0,0.9,0.1,1.1,0.3c0.2,0.2,0.3,0.6,0.3,1.1c0,0.5-0.1,1.3-0.4,2.4
												c-0.1,0.5-0.2,0.8-0.2,1c0,0.2,0,0.3,0.2,0.4c0.1,0.1,0.2,0.2,0.4,0.2c-0.1,0.3-0.2,0.5-0.5,0.6c-0.3,0.2-0.6,0.2-0.9,0.2
												c-0.9,0-1.4-0.4-1.4-1.1c0-0.2,0-0.5,0.1-0.8l0.2-1.1c0.2-1,0.3-1.6,0.3-1.8c0-0.4-0.1-0.7-0.4-0.7c-0.4,0-0.8,0.6-1,1.7l-0.7,3.5
												L62.2,93.3z M66.4,100.9c0.5,0,0.7,0.3,0.7,0.8v1.6c0,0.5-0.3,0.8-0.7,0.8c-0.5,0-0.7-0.3-0.7-0.8v-1.6
												C65.7,101.1,66,100.9,66.4,100.9z M66.2,103.3c0,0.2,0.1,0.3,0.2,0.3c0.2,0,0.3-0.1,0.3-0.3v-1.7c0-0.2-0.1-0.3-0.3-0.3
												c-0.2,0-0.2,0.1-0.2,0.3V103.3z M68.9,100.9c0.5,0,0.7,0.3,0.7,0.8c0,1-1,1.4-1,1.9h0.9v0.4h-1.4v-0.4c0-0.9,1-1.1,1-2
												c0-0.3-0.1-0.4-0.2-0.4c-0.2,0-0.3,0.1-0.3,0.3v0.3h-0.5v-0.3C68.2,101.1,68.4,100.9,68.9,100.9z M70.5,87.7h-0.7l0-0.3
												c0.9-0.3,1.8-0.7,2.7-1.4h0.5l-0.3,1.2h0.9l-0.1,0.5h-0.9l-0.6,3.1C72,91.3,72,91.6,72,91.8c0,0.4,0.2,0.6,0.5,0.7
												c-0.1,0.3-0.2,0.5-0.5,0.6c-0.3,0.2-0.6,0.2-1,0.2c-0.4,0-0.7-0.1-0.9-0.4c-0.2-0.2-0.3-0.6-0.3-1c0-0.2,0.1-0.6,0.2-1.1L70.5,87.7z
												 M76.6,91.8c0.3,0,0.6-0.1,0.9-0.2c0.3-0.1,0.5-0.3,0.6-0.5c0.2,0.1,0.3,0.3,0.3,0.6c0,0.3-0.1,0.5-0.2,0.7
												c-0.1,0.2-0.3,0.3-0.6,0.5c-0.5,0.3-1,0.4-1.5,0.4c-0.5,0-0.9-0.1-1.2-0.2c-0.3-0.1-0.6-0.3-0.8-0.5c-0.4-0.4-0.6-1-0.6-1.7
												c0-1.2,0.3-2.1,0.9-2.8c0.7-0.8,1.6-1.1,2.7-1.1c0.7,0,1.3,0.2,1.6,0.5c0.3,0.2,0.4,0.5,0.4,0.9c0,1.3-1.1,2-3.4,2
												c0,0.2,0,0.4,0,0.5c0,0.4,0.1,0.6,0.2,0.7C76.1,91.8,76.3,91.8,76.6,91.8z M77.1,89.4c0.3-0.3,0.5-0.7,0.5-1.2c0-0.2,0-0.3-0.1-0.4
												c-0.1-0.1-0.2-0.1-0.3-0.1c-0.1,0-0.2,0-0.4,0.1s-0.2,0.2-0.3,0.3c-0.3,0.4-0.5,1-0.7,1.9C76.4,89.9,76.8,89.7,77.1,89.4z
												 M79.8,102.3h-8.1V102h8.1V102.3z M80.5,88.1c0.7-0.8,1.6-1.1,2.7-1.1c0.7,0,1.3,0.2,1.6,0.5c0.3,0.2,0.4,0.5,0.4,0.9
												c0,1.3-1.1,2-3.4,2c0,0.2,0,0.4,0,0.5c0,0.4,0.1,0.6,0.2,0.7c0.2,0.1,0.4,0.2,0.7,0.2c0.3,0,0.6-0.1,0.9-0.2
												c0.3-0.1,0.5-0.3,0.7-0.5c0.2,0.1,0.3,0.3,0.3,0.6c0,0.3-0.1,0.5-0.2,0.7c-0.1,0.2-0.3,0.3-0.6,0.5c-0.5,0.3-1,0.4-1.5,0.4
												c-0.5,0-0.9-0.1-1.2-0.2c-0.3-0.1-0.6-0.3-0.8-0.5c-0.4-0.4-0.6-1-0.6-1.7C79.6,89.8,79.9,88.8,80.5,88.1z M83.1,89.4
												c0.3-0.3,0.5-0.7,0.5-1.2c0-0.2,0-0.3-0.1-0.4c-0.1-0.1-0.2-0.1-0.3-0.1c-0.1,0-0.2,0-0.4,0.1c-0.1,0-0.2,0.2-0.3,0.3
												c-0.3,0.4-0.5,1-0.7,1.9C82.4,89.9,82.8,89.7,83.1,89.4z M89.2,87c0.3,0,0.5,0,0.7,0.1c0,0,0-0.1,0-0.2l0.1-0.4
												c0-0.2,0.1-0.4,0.1-0.6l0.2-0.9l2.3-0.2l-1.3,6.6c0,0,0,0.1,0,0.2v0.2c0,0.2,0,0.3,0.1,0.4c0.1,0.1,0.2,0.2,0.3,0.2
												c-0.1,0.4-0.5,0.6-0.9,0.8c-0.2,0-0.3,0.1-0.6,0.1c-0.2,0-0.4-0.1-0.6-0.2c-0.2-0.1-0.3-0.3-0.4-0.5c-0.1,0.2-0.3,0.4-0.5,0.5
												c-0.2,0.1-0.5,0.2-0.9,0.2c-0.4,0-0.7,0-1-0.1c-0.3-0.1-0.5-0.2-0.7-0.4c-0.3-0.4-0.5-1-0.5-1.9c0-1.1,0.3-2.1,1-2.8
												C87.2,87.4,88.1,87,89.2,87z M88.1,92.6c0.2,0,0.4-0.1,0.6-0.4s0.3-0.6,0.4-1l0.6-3.3c-0.2-0.1-0.4-0.2-0.7-0.2
												c-0.3,0-0.5,0.2-0.6,0.5c-0.1,0.3-0.3,0.8-0.5,1.6c-0.2,0.8-0.2,1.5-0.2,2.1C87.7,92.3,87.9,92.6,88.1,92.6z" fill-opacity="0.7" fill="#FFFFFF"></path>
											</svg>