<svg xmlns:xlink="http://www.w3.org/1999/xlink" xmlns="http://www.w3.org/2000/svg" viewBox="0 0 120 120" width="120"  height="120" >
												<style type="text/css">
													.st0 {
														fill: #3A3A3A;
													}
												</style>
												<path class="st0" d="M119,71.3H93.7v7.9v0.5l-0.4,0.3l-16.6,9.6l-16.6,9.6l-0.4,0.3l-0.4-0.3l-16.7-9.6h0l-16.6-9.6l-0.4-0.3v-0.5
											v-7.9H0l4.7-11.4L0,48.6h25.3v-7.9v-0.5l0.4-0.3l16.6-9.6h0l16.7-9.6l0.4-0.3l0.4,0.3l16.6,9.6l16.6,9.6l0.4,0.3v0.5v7.9H119
											l-4.7,11.4L119,71.3z M14,62.9l-0.4-0.3c0-1.7,0-3.5,0-5.2c-0.5,0-0.8,0-1.3,0v0.3l0.5,0.2c0,1.6,0,3.1,0,4.7l-0.4,0.3v0.3
											c0.5,0,1.1,0,1.6,0V62.9z M18.4,58.7c0-0.9-0.6-1.3-1.5-1.3c-0.9,0-1.5,0.5-1.5,1.4v1.2c0,1.3,1.6,1.5,2.2,0.9c0,0.5,0,0.8,0,1.3
											c0,0.5-0.2,0.7-0.6,0.7c-0.4,0-0.6-0.2-0.6-0.7v-0.3h-0.8V62c0,0.9,0.6,1.2,1.5,1.2c0.8,0,1.5-0.4,1.5-1.2
											C18.4,60.9,18.4,59.8,18.4,58.7z M91.9,59.9V41.2l-16.2-9.4h0l-16.2-9.4l-16.2,9.4h0l-16.2,9.4v18.7v18.7L43.3,88h0l16.2,9.4
											L75.7,88h0l16.2-9.4V59.9z M103.8,58.7c0-0.9-0.6-1.3-1.5-1.3c-0.9,0-1.5,0.5-1.5,1.4v1.2c0,1.3,1.6,1.5,2.2,0.9c0,0.5,0,0.8,0,1.3
											c0,0.5-0.2,0.7-0.6,0.7c-0.4,0-0.6-0.2-0.6-0.7v-0.3h-0.8V62c0,0.9,0.6,1.2,1.5,1.2c0.8,0,1.5-0.4,1.5-1.2
											C103.8,60.9,103.8,59.8,103.8,58.7z M106.9,62.9l-0.4-0.3c0-1.7,0-3.5,0-5.2c-0.5,0-0.8,0-1.3,0v0.3l0.5,0.2c0,1.6,0,3.1,0,4.7
											l-0.4,0.3v0.3c0.5,0,1.1,0,1.6,0V62.9z M101.7,59.9v-1.2c0-0.5,0.2-0.8,0.7-0.8c0.4,0,0.6,0.3,0.6,0.8v1.2
											C103,60.9,101.7,60.9,101.7,59.9z M59.7,95.8l-0.2,0.1l-0.2-0.1l-15.4-8.9L28.5,78l-0.2-0.1v-0.3V59.9V42.2v-0.3l0.2-0.1l15.4-8.9
											L59.3,24l0.2-0.1l0.2,0.1l15.4,8.9l15.4,8.9l0.2,0.1v0.3v17.8v17.8v0.3L90.5,78l-15.4,8.9L59.7,95.8z M89.8,59.9V42.4l-15.2-8.8
											l-15.2-8.7l-15.2,8.7l-15.2,8.8v17.5v17.5l15.2,8.8l15.2,8.7l15.2-8.7l15.2-8.8V59.9z M73,69.4h10.5V70H73V69.4z M82.1,62.2V64
											c0,2.3-1.9,3.2-3.9,3.2c-2,0-3.7-1-3.7-3.2v-1.2h2.4V64c0,1.3,0.5,1.8,1.5,1.8c1.1,0,1.6-0.7,1.6-1.8v-1.8c0-2.7-5.3-1.6-5.3-5.3
											v-1.8c0-2.2,1.6-3,3.3-3c0.8,0,1.7,0.2,2.4,0.9h0.1l0.2-0.8h1.4c0,1.3,0,2.6,0,3.9h-2.2v-1.1c0-1-0.6-1.6-1.5-1.6
											c-1,0-1.5,0.6-1.5,1.6v1.8C76.7,59.4,82.1,58.3,82.1,62.2z M73,49.9h10.5v0.6H73V49.9z M61.3,75.6l2.1-1.1V61.3h-7.7v13.2l2.1,1.1
											V77h-9.1v-1.4l2.1-1.1V46.2L49,45v-1.4h8.4V45l-1.8,1.2v12.4h7.7V46.2L61.6,45v-1.4H70V45l-1.8,1.2v28.3l2.1,1.1V77h-9.1V75.6z
											 M35.5,69.4H46V70H35.5V69.4z M44.6,62.2V64c0,2.3-1.9,3.2-3.9,3.2c-2,0-3.7-1-3.7-3.2v-1.2h2.4V64c0,1.3,0.5,1.8,1.5,1.8
											c1.1,0,1.6-0.7,1.6-1.8v-1.8c0-2.7-5.3-1.6-5.3-5.3v-1.8c0-2.2,1.6-3,3.3-3c0.8,0,1.7,0.2,2.4,0.9h0.1l0.2-0.8h1.4
											c0,1.3,0,2.6,0,3.9h-2.2v-1.1c0-1-0.6-1.6-1.5-1.6c-1,0-1.5,0.6-1.5,1.6v1.8C39.3,59.4,44.6,58.3,44.6,62.2z M35.5,49.9H46v0.6H35.5
											V49.9z M16.2,59.9v-1.2c0-0.5,0.2-0.8,0.7-0.8c0.4,0,0.6,0.3,0.6,0.8v1.2C17.5,60.9,16.2,60.9,16.2,59.9z M107.9,34.3
											c-1.1,2.2-2.3,4.4-3.6,6.6c0,0.1-0.1,0.1-0.1,0.2c-0.2,0.1-0.4,0.1-0.5,0l0,0c-2.4-2.7-5.1-5.3-8-7.5c-0.1-0.1-0.1-0.3-0.1-0.4
											c0,0,0-0.1,0.1-0.1l2.5-3.3C92,25,84.9,21.4,77.5,19.2c-7.5-2.2-15.3-3-23.1-2.4c-12.1,0.9-23.9,5.5-33.6,12.9l2.5,3.3
											c0,0,0,0.1,0.1,0.1c0.1,0.2,0,0.3-0.1,0.4c-2.9,2.3-5.6,4.8-8,7.5l0,0c-0.1,0.1-0.3,0.1-0.5,0c-0.1-0.1-0.1-0.1-0.1-0.2
											c-1.3-2.1-2.5-4.3-3.6-6.6c-2.3-1-4.7-2-7.1-2.8c-0.1,0-0.2-0.1-0.2-0.3c0-0.1,0-0.3,0.1-0.4c1.3-1.5,2.7-2.9,4.1-4.2l-2.9-3
											c-0.1-0.1-0.1-0.4,0-0.6c6.5-6.2,14-11.2,22.2-14.9c8.2-3.7,17-5.9,25.9-6.6c11-0.9,22.2,0.5,32.7,4.3C96.3,9.5,105.9,15.4,114,23
											c0.2,0.2,0.2,0.4,0,0.6l-2.9,3c1.4,1.4,2.8,2.8,4.1,4.2c0.1,0.1,0.1,0.2,0.1,0.4c0,0.1-0.1,0.2-0.2,0.3
											C112.6,32.3,110.3,33.3,107.9,34.3z M4.8,30.9c2.3,0.9,4.5,1.8,6.7,2.8c0.1,0,0.1,0.1,0.2,0.2c1.1,2.2,2.2,4.3,3.4,6.3
											c2.1-2.4,4.4-4.5,6.9-6.5c-2,0.2-4.1,0.5-6.1,0.9c-0.1,0-0.3,0-0.3-0.1l-0.3-0.3l-6.7-7C7.1,28.3,5.9,29.6,4.8,30.9z M113.1,23.3
											C105.2,15.8,95.7,10,85.4,6.4c-10.3-3.6-21.3-5-32.2-4.1C44.5,3,35.8,5.2,27.7,8.7c-8.1,3.6-15.5,8.5-21.9,14.6l2.8,3l6.7,7.1
											c1.5-1.4,3.1-2.8,4.7-4C29.9,21.7,42,17,54.3,16.1c7.9-0.6,15.9,0.2,23.5,2.4c7.6,2.3,14.8,5.9,21,10.8c1.6,1.3,3.2,2.6,4.7,4
											l6.7-7.1L113.1,23.3z M110.6,27.1l-6.7,7l-0.3,0.3c-0.1,0.1-0.2,0.1-0.3,0.1c-2.1-0.4-4.1-0.7-6.1-0.9c2.5,2,4.8,4.2,6.9,6.5
											c1.2-2.1,2.3-4.2,3.4-6.3c0-0.1,0.1-0.1,0.2-0.2c2.2-1,4.4-1.9,6.7-2.8C113.1,29.6,111.9,28.3,110.6,27.1z M104,23.6l0.2-0.3
											c1,0.7,1.9,1.5,2.8,2.3l-0.2,0.3C105.8,25.1,104.9,24.3,104,23.6z M103.6,20.1c-1.4,2-2.7,3.9-4.1,5.9l-0.8-0.5
											c-0.2-0.2-0.3-0.4-0.2-0.6l2.1-6.2l0,0l-0.5,1c-0.9,1.3-1.9,2.7-2.8,4l0.2,0.5l-0.2,0.3c-0.5-0.3-1-0.7-1.4-1l0.2-0.3l0.6,0
											c1.2-1.8,2.5-3.6,3.8-5.4l-0.2-0.5l0.2-0.3c0.4,0.3,0.7,0.4,1.1,0.8c0.4,0.3,0.5,0.4,0.3,0.8l-1.1,3.5l-0.8,2.1l0,0
											c0.3-0.5,0.7-1.1,1-1.6l2.1-3l-0.2-0.5l0.2-0.3c0.4,0.3,0.9,0.6,1.4,0.9l-0.2,0.3L103.6,20.1z M93.9,15.8l0.3-0.5
											c0.3-0.6,0-1-0.5-1.3c-0.5-0.3-1.1-0.1-1.5,0.7c-0.6,1.1-1.2,2.3-1.8,3.4c-0.4,0.8-0.3,1.4,0.3,1.7c0.7,0.4,1.2,0,1.5-0.6l0.4-0.8
											l-0.4-0.6l0.2-0.3l1.6,0.8c-0.5,1-1,2-1.6,3l-0.6-0.3l0.2-0.6c-0.5,0.3-1,0.2-1.5,0c-1.2-0.6-1.7-1.6-1.1-2.9
											c0.6-1.1,1.2-2.3,1.8-3.4c0.7-1.3,2-1.3,2.9-0.8c0.4,0.2,0.8,0.6,1,1l0,0l0.3-0.3l0.7,0.4l-1,1.9L93.9,15.8z M86.8,10.8
											c-0.8,2-1.6,4.1-2.4,6.1l0.3,0.5l-0.1,0.3c-0.6-0.2-1.4-0.5-2-0.8l0.1-0.3l0.6-0.1c0.8-2,1.6-4.1,2.4-6.1L85.4,10l0.1-0.3l1.9,0.7
											l-0.1,0.3L86.8,10.8z M79.2,9.8l0.1-0.6c0.1-0.5-0.1-0.9-0.6-1c-0.5-0.1-0.9,0.1-1,0.6l-0.2,0.9c-0.3,1.3,2.6,1.5,2,3.5l-0.2,0.9
											c-0.3,1.2-1.4,1.4-2.5,1.1c-1-0.3-1.8-1-1.5-2.2l0.2-0.6l1.2,0.3l-0.2,0.6c-0.2,0.6,0,1,0.5,1.1c0.6,0.2,0.9-0.2,1.1-0.7l0.2-0.9
											c0.4-1.4-2.5-1.6-2-3.5l0.2-0.9c0.3-1.1,1.2-1.3,2.1-1.1c0.4,0.1,0.9,0.3,1.1,0.8l0,0l0.2-0.4l0.7,0.2c-0.2,0.7-0.4,1.4-0.5,2
											L79.2,9.8z M71.3,7.7l-0.2-1.1l-1.5-0.2c-0.1,1-0.3,1.9-0.4,2.9l1.1,0.2l0.4-0.6l0.3,0c-0.1,0.5-0.2,1.3-0.3,1.9l-0.3,0l-0.2-0.6
											L69.1,10c-0.1,0.8-0.2,1.6-0.3,2.4c0,0.2-0.1,0.3-0.3,0.3l0,0.1c0.6,0.1,1.3,0.2,1.9,0.3l0.5-1l0.5,0.1l-0.2,1.7
											c-1.4-0.2-2.8-0.4-4.2-0.6l0-0.3l0.5-0.3c0.3-2.2,0.6-4.4,0.9-6.5l-0.4-0.3l0-0.3c1.4,0.2,2.6,0.4,3.9,0.6l-0.2,1.7L71.3,7.7z
											 M60.7,12.9l-2.4,0l0-0.3l0.5-0.3l0.1-6.5l-0.4-0.3l0-0.3l2.4,0c1.3,0,2.2,0.6,2.2,2.1L63,10.9C63,12.3,62,12.9,60.7,12.9z
											 M60.8,5.7l-0.8,0l-0.1,6c0,0.2-0.1,0.3-0.3,0.3l0,0.1l1,0c0.8,0,1.1-0.6,1.1-1.3l0.1-3.8C61.9,6.4,61.7,5.8,60.8,5.7z M105.8,27
											l-0.2,0.3c-0.9-0.8-1.8-1.5-2.7-2.2l0.2-0.3C104,25.5,104.9,26.2,105.8,27z M103.6,24c0.9,0.7,1.9,1.5,2.8,2.3l-0.2,0.3
											c-0.9-0.8-1.8-1.5-2.8-2.3L103.6,24z M52,13.4c-1.4,0.2-2.3-0.6-2.5-1.8l-0.4-3.9c-0.1-1.2,0.6-2.2,2-2.3c1.4-0.2,2.3,0.6,2.5,1.8
											l0.4,3.9C54.2,12.3,53.4,13.3,52,13.4z M52.4,7.3c-0.1-0.7-0.5-1.3-1.2-1.2c-0.7,0.1-1,0.6-0.9,1.5l0.4,3.9c0.1,0.9,0.5,1.3,1.2,1.2
											c0.7-0.1,1-0.7,0.9-1.5L52.4,7.3z M44.1,13.6l-0.9-1.3c-0.4-0.5-0.6-0.6-1.2-0.5c0.2,0.7,0.4,1.8,0.6,2.5l0.6,0.2l0.1,0.3
											c-0.6,0.2-1.4,0.3-2.1,0.5L41.1,15l0.4-0.4c-0.5-2.1-1-4.3-1.5-6.4L39.5,8l-0.1-0.3l2.2-0.5c1.2-0.3,2.2-0.1,2.6,1.3l0.2,1
											c0.2,0.9-0.2,1.6-0.8,1.9c0.4,0.1,0.6,0.3,0.8,0.6l0.9,1.3c0.2,0.3,0.5,0.6,0.8,0.5l0.1,0.4c-0.2,0.2-0.5,0.3-0.8,0.3
											C44.7,14.6,44.5,14.1,44.1,13.6z M43.3,9.7l-0.2-1c-0.2-0.7-0.5-1-1.3-0.9L41.1,8c0.3,1.2,0.5,2,0.8,3.2l0.7-0.2
											C43.3,10.9,43.5,10.4,43.3,9.7z M34.4,17.3l0.3-0.5c-0.8-2-1.5-4-2.3-6l-0.8,0.3l0.1,1.3l-0.5,0.2l-0.7-1.9l4.3-1.6l0.7,1.8
											l-0.5,0.2l-0.8-1.1l-0.8,0.3c0.8,2,1.5,4,2.3,6l0.6,0.2l0.1,0.4c-0.6,0.2-1.4,0.5-2,0.8L34.4,17.3z M26.2,21.2l0.3-0.5
											c-1-2-2-3.9-3.1-5.9L23,14.8l-0.1-0.3c1.2-0.6,2.3-1.2,3.5-1.8l0.8,1.6l-0.5,0.3l-0.8-0.8l-1.3,0.7c0.5,0.9,0.9,1.7,1.4,2.6l1-0.5
											l0-0.7l0.3-0.2c0.3,0.5,0.6,1.2,0.9,1.7l-0.3,0.2l-0.5-0.4l-1,0.5c0.4,0.7,0.8,1.5,1.1,2.2c0.1,0.2,0.1,0.3,0,0.4l0,0.1
											c0.6-0.3,1.1-0.6,1.7-0.9l-0.2-1.1l0.4-0.2l0.8,1.6c-1.2,0.6-2.5,1.3-3.7,2L26.2,21.2z M23,22.9l0.2,0.4c-0.1,0.2-0.4,0.4-0.6,0.6
											c-0.6,0.4-0.9,0-1.4-0.3L20,22.7c-0.5-0.4-0.8-0.4-1.3,0c0.4,0.6,1.1,1.5,1.5,2.1l0.6,0l0.2,0.3c-0.5,0.4-1.2,0.8-1.7,1.2L19,26
											l0.2-0.6c-1.2-1.8-2.5-3.6-3.7-5.4l-0.5,0l-0.2-0.3l1.9-1.3c1-0.7,2.1-0.9,2.8,0.2l0.6,0.8c0.5,0.8,0.4,1.5-0.1,2.1
											c0.4,0,0.6,0,0.9,0.3l1.3,0.9C22.4,22.9,22.8,23.2,23,22.9z M19.1,20.2l-0.6-0.8c-0.4-0.6-0.9-0.8-1.5-0.3l-0.6,0.4
											c0.7,1,1.2,1.7,1.9,2.7l0.6-0.4C19.5,21.3,19.5,20.8,19.1,20.2z M15,23.6c-1,0.7-1.9,1.5-2.8,2.3L12,25.6c0.9-0.8,1.9-1.6,2.8-2.3
											L15,23.6z M15.6,24.3c-0.9,0.7-1.9,1.5-2.8,2.3l-0.2-0.3c0.9-0.8,1.8-1.5,2.8-2.3L15.6,24.3z M16.2,25c-0.9,0.7-1.8,1.5-2.7,2.2
											L13.2,27c0.9-0.8,1.8-1.5,2.7-2.3L16.2,25z M11.1,85.5c1.1-2.2,2.3-4.4,3.6-6.6c0-0.1,0.1-0.1,0.1-0.2c0.2-0.1,0.4-0.1,0.5,0l0,0
											c2.4,2.7,5.1,5.3,8,7.5c0.1,0.1,0.1,0.3,0.1,0.4c0,0,0,0.1-0.1,0.1l-2.5,3.3c6.2,4.7,13.2,8.3,20.7,10.5c7.5,2.2,15.3,3,23.1,2.4
											c12.1-0.9,23.9-5.5,33.6-12.9l-2.5-3.3c0,0,0-0.1-0.1-0.1c-0.1-0.2,0-0.3,0.1-0.4c2.9-2.3,5.6-4.8,8-7.5l0,0c0.1-0.1,0.3-0.1,0.5,0
											c0.1,0.1,0.1,0.1,0.1,0.2c1.3,2.1,2.5,4.3,3.6,6.6c2.3,1,4.7,2,7.1,2.8c0.1,0,0.2,0.1,0.2,0.3c0,0.1,0,0.3-0.1,0.4
											c-1.3,1.5-2.7,2.9-4.1,4.2l2.9,3c0.1,0.1,0.1,0.4,0,0.6c-6.5,6.2-14,11.2-22.2,14.9c-8.2,3.7-17,5.9-25.9,6.6
											c-11,0.9-22.2-0.6-32.7-4.3c-10.5-3.7-20.1-9.6-28.1-17.3c-0.2-0.2-0.2-0.4,0-0.6l2.9-3c-1.4-1.4-2.8-2.8-4.1-4.2
											c-0.1-0.1-0.1-0.2-0.1-0.4c0-0.1,0.1-0.2,0.2-0.3C6.4,87.5,8.7,86.6,11.1,85.5z M114.2,88.9c-2.3-0.9-4.5-1.8-6.7-2.8
											c-0.1,0-0.1-0.1-0.2-0.2c-1.1-2.2-2.2-4.3-3.4-6.3c-2.1,2.3-4.4,4.5-6.9,6.5c2-0.2,4.1-0.5,6.1-0.9c0.1,0,0.3,0,0.3,0.1l0.3,0.3
											l6.7,7C111.9,91.5,113.1,90.2,114.2,88.9z M5.9,96.5c7.9,7.5,17.4,13.3,27.7,16.9c10.3,3.6,21.3,5,32.2,4.1
											c8.8-0.7,17.4-2.9,25.5-6.5c8.1-3.6,15.5-8.5,21.9-14.6l-2.8-3l-6.7-7.1c-1.5,1.4-3.1,2.8-4.7,4c-9.8,7.6-21.8,12.3-34.2,13.2
											c-7.9,0.6-15.9-0.2-23.5-2.5c-7.6-2.3-14.8-5.9-21-10.8c-1.6-1.3-3.2-2.6-4.7-4l-6.7,7.1L5.9,96.5z M8.4,92.7l6.7-7l0.3-0.3
											c0.1-0.1,0.2-0.1,0.3-0.1c2.1,0.4,4.1,0.7,6.1,0.9c-2.5-2-4.8-4.2-6.9-6.5c-1.2,2.1-2.3,4.2-3.4,6.3c0,0.1-0.1,0.1-0.2,0.2
											c-2.2,1-4.4,1.9-6.7,2.8C5.9,90.2,7.1,91.5,8.4,92.7z M15,96.3l-0.2,0.3c-1-0.7-1.9-1.5-2.8-2.3l0.2-0.3
											C13.2,94.7,14.1,95.5,15,96.3z M12.9,93.3c0.9,0.8,1.8,1.5,2.8,2.3l-0.2,0.3c-0.9-0.7-1.9-1.5-2.8-2.3L12.9,93.3z M13.5,92.6
											c0.9,0.8,1.8,1.5,2.7,2.2l-0.2,0.3c-0.9-0.7-1.8-1.5-2.7-2.3L13.5,92.6z M19.2,96.8c0.5-0.7,1.3-0.8,2-0.3c0.8,0.5,0.9,1.3,0.5,2
											l-1.5,2.2c-0.5,0.7-1.3,0.8-2,0.3c-0.8-0.5-0.9-1.3-0.5-2L19.2,96.8z M18.5,100.5c0.4,0.3,0.8,0.1,1.1-0.3l1.5-2.2
											c0.3-0.4,0.3-0.9-0.1-1.2c-0.4-0.3-0.8-0.1-1.1,0.3l-1.5,2.2C18,99.9,18,100.3,18.5,100.5z M22.7,103.2c0.7-1.3,1.4-2.6,2.1-3.8
											l-0.1-0.3l0.1-0.2l1.3,0.7c0.7,0.4,1.1,1,0.7,1.8l-0.3,0.6c-0.3,0.6-0.8,0.7-1.3,0.6c0.1,0.2,0.2,0.4,0.1,0.6l-0.2,1
											c0,0.2-0.1,0.5,0.2,0.6l-0.1,0.3c-0.2,0-0.4-0.1-0.5-0.2c-0.4-0.2-0.3-0.5-0.2-1l0.1-1c0.1-0.4,0-0.6-0.4-0.8
											c-0.2,0.4-0.6,1.1-0.8,1.5l0.2,0.4l-0.1,0.2c-0.4-0.2-0.9-0.5-1.2-0.7l0.1-0.2L22.7,103.2z M24.9,101.9c0.4,0.2,0.7,0.1,1-0.3
											l0.3-0.6c0.2-0.4,0.2-0.7-0.2-1l-0.4-0.2c-0.4,0.7-0.7,1.2-1.1,1.9L24.9,101.9z M28.3,106.1c0.6-1.3,1.2-2.6,1.8-4l-0.2-0.3l0.1-0.2
											l1.2,0.6l-0.1,0.2l-0.3,0.1c-0.6,1.3-1.2,2.6-1.8,4l0.2,0.3l-0.1,0.2c-0.4-0.2-0.9-0.4-1.3-0.6l0.1-0.2L28.3,106.1z M33.4,104.6
											c0.3-0.9,1.2-1,1.9-0.8c0.3,0.1,0.6,0.3,0.7,0.6l0,0l0.2-0.2l0.5,0.2l-0.5,1.4l-0.7-0.3l0.1-0.4c0.2-0.4-0.1-0.7-0.4-0.8
											c-0.3-0.1-0.7,0-1,0.6c-0.3,0.8-0.6,1.6-0.9,2.4c-0.2,0.6-0.1,0.9,0.3,1.1c0.5,0.2,0.8-0.1,0.9-0.5l0.2-0.5l-0.3-0.4l0.1-0.2
											l1.1,0.4c-0.3,0.7-0.5,1.4-0.8,2.1l-0.5-0.2l0.1-0.4c-0.3,0.2-0.7,0.2-1,0.1c-0.8-0.3-1.2-1-0.9-1.8
											C32.8,106.2,33.1,105.4,33.4,104.6z M38.3,109.9c0.4-1.4,0.8-2.8,1.2-4.2l-0.2-0.3l0.1-0.2l1.3,0.4l-0.1,0.2l-0.3,0.1
											c-0.4,1.4-0.8,2.8-1.2,4.2l0.3,0.3l-0.1,0.2c-0.4-0.1-0.9-0.3-1.4-0.4l0.1-0.2L38.3,109.9z M42.6,111.1c0.3-1.4,0.6-2.9,0.9-4.3
											l-0.2-0.2l0-0.2c0.4,0.1,0.5,0.1,0.9,0.2c0.3,0.1,0.4,0.1,0.4,0.4l0.2,2.4l0,1.5l0,0c0.1-0.4,0.2-0.9,0.2-1.2l0.5-2.4l-0.2-0.2
											l0-0.2c0.4,0.1,0.7,0.2,1.1,0.2l0,0.2l-0.3,0.1c-0.3,1.6-0.7,3.1-1,4.7l-0.6-0.1c-0.2,0-0.2-0.2-0.3-0.3l-0.3-4.3l0,0l-0.1,0.7
											c-0.2,1.1-0.5,2.1-0.7,3.2l0.3,0.3l0,0.2c-0.4-0.1-0.8-0.2-1.1-0.2l0.1-0.2L42.6,111.1z M48.4,112.3c0.6-1.5,1.2-3.2,1.8-4.7
											l0.8,0.1l0.6,5l0.2,0.2l0,0.2l-1.3-0.2l0-0.2l0.3-0.1l-0.1-1.1l-1.4-0.2l-0.4,1l0.3,0.2l0,0.2l-1-0.1l0-0.2L48.4,112.3z M50.6,111.1
											l-0.3-2.6h0l-0.9,2.4L50.6,111.1z M54.9,112.9c0.1-1.5,0.1-2.9,0.2-4.4l-0.3-0.2l0-0.2l1.3,0.1l0,0.2l-0.3,0.2
											c-0.1,1.4-0.1,2.7-0.2,4.1c0,0.1,0,0.2-0.2,0.2l0,0c0.4,0,0.8,0,1.2,0.1l0.3-0.7l0.3,0l-0.1,1.2c-0.9,0-1.8-0.1-2.7-0.1l0-0.2
											L54.9,112.9z M65.1,108c0.3,0,0.7,0,0.9,0.3l0,0l0-0.3l0.5,0l0.1,1.5l-0.8,0.1l0-0.1c0-0.5-0.2-0.8-0.7-0.8c-0.4,0-0.7,0.3-0.6,0.9
											c0,0.3,0.2,2.3,0.2,2.6c0,0.6,0.3,0.9,0.8,0.8c0.5,0,0.7-0.4,0.6-0.9l0-0.3l0.8-0.1l0,0.3c0.1,0.9-0.5,1.4-1.4,1.4
											c-0.8,0.1-1.5-0.3-1.6-1.3c0-0.3-0.2-2.3-0.2-2.6C63.7,108.6,64.2,108,65.1,108z M70.8,107.2c0.9-0.2,1.6,0.3,1.7,1.1l0.4,2.6
											c0.1,0.8-0.3,1.5-1.3,1.6c-0.9,0.2-1.6-0.3-1.7-1.1l-0.4-2.6C69.5,108,69.9,107.4,70.8,107.2z M70.8,111.3c0.1,0.6,0.4,0.8,0.9,0.8
											c0.5-0.1,0.7-0.5,0.6-1l-0.4-2.6c-0.1-0.5-0.4-0.8-0.9-0.8c-0.5,0.1-0.7,0.4-0.6,1L70.8,111.3z M76.6,106.5c0.6,1.4,1.1,2.3,1.6,3.6
											l0,0l-0.4-4c0-0.3,0.1-0.4,0.3-0.4c0.4-0.1,0.6-0.2,1-0.3l0.1,0.2l-0.2,0.3c0.4,1.4,0.7,2.8,1.1,4.2l0.4,0.1l0.1,0.2
											c-0.4,0.1-1,0.3-1.4,0.4l-0.1-0.2l0.3-0.3c-0.3-1.1-0.6-2.3-0.9-3.4l-0.2-0.7l0,0l0.4,4.7l-0.6,0.2c-0.2,0-0.2,0-0.3-0.1
											c-0.6-1.4-1.2-2.7-1.9-4l0,0l0.3,0.9c0.3,1.1,0.6,2.1,0.8,3.2l0.4,0.1l0.1,0.2c-0.4,0.1-0.8,0.2-1.1,0.3l-0.1-0.2l0.3-0.3
											c-0.4-1.4-0.8-2.8-1.1-4.3l-0.3-0.1l-0.1-0.2c0.4-0.1,0.7-0.2,1.1-0.3C76.4,106.2,76.5,106.2,76.6,106.5z M85.1,104.7l0.3,0.9
											c0.3,0.9-0.2,1.3-1,1.6l-0.4,0.2c0.2,0.4,0.3,0.9,0.5,1.4l0.4,0.1L85,109c-0.4,0.1-0.9,0.3-1.3,0.5l-0.1-0.2l0.2-0.3
											c-0.5-1.4-1-2.7-1.5-4.1l-0.3-0.1l-0.1-0.2l1.4-0.5C84.1,103.7,84.8,103.8,85.1,104.7z M83.8,106.9l0.4-0.2c0.5-0.2,0.6-0.5,0.4-0.9
											l-0.3-0.9c-0.2-0.4-0.4-0.6-0.9-0.5l-0.5,0.2C83.3,105.4,83.6,106.1,83.8,106.9z M88.6,101.8l3.1,3.9l0.3,0l0.1,0.2l-1.2,0.6
											l-0.1-0.2l0.2-0.3l-0.7-0.9l-1.2,0.6l0.2,1.1l0.3,0l0.1,0.2l-0.9,0.4l-0.1-0.2l0.2-0.2c-0.3-1.6-0.7-3.4-1-4.9L88.6,101.8z
											 M89,105.4l1.1-0.5l-1.6-2l0,0L89,105.4z M92.9,99.6c0.3-0.2,0.4-0.2,0.6,0l1.8,1.7l1,1.1l0,0c-0.2-0.3-0.5-0.8-0.6-1.1l-1.2-2.1
											l-0.3,0L93.9,99c0.3-0.2,0.6-0.4,1-0.5l0.1,0.2L94.8,99c0.8,1.4,1.6,2.8,2.4,4.2l-0.6,0.3c-0.2,0.1-0.3,0-0.4-0.1l-3.1-3l0,0
											l0.4,0.6c0.5,0.9,1.1,1.9,1.6,2.8l0.4,0l0.1,0.2c-0.3,0.2-0.7,0.4-1,0.6l-0.1-0.2l0.2-0.3c-0.7-1.3-1.4-2.5-2.2-3.8l-0.3,0l-0.1-0.2
											C92.4,99.9,92.5,99.8,92.9,99.6z M97.2,97.4L97,97.4l-0.1-0.2l0.6-0.4c0.2-0.2,0.3-0.1,0.5,0l1.6,1.1l-0.4-1.9l-0.3,0L98.7,96
											l0.9-0.6l0.1,0.2l-0.1,0.3l0.6,2.6l1.1,1.6l0.4,0l0.1,0.2c-0.4,0.2-0.8,0.6-1.2,0.8l-0.1-0.2l0.1-0.4l-1-1.5L97.2,97.4z M105.8,92.8
											c-0.9,0.8-1.8,1.5-2.7,2.3l-0.2-0.3c0.9-0.7,1.8-1.5,2.7-2.2L105.8,92.8z M106.4,93.5c-0.9,0.8-1.8,1.5-2.8,2.3l-0.2-0.3
											c0.9-0.7,1.9-1.5,2.8-2.3L106.4,93.5z M107,94.2c-0.9,0.8-1.9,1.6-2.8,2.3l-0.2-0.3c0.9-0.7,1.9-1.5,2.8-2.3L107,94.2z" fill-opacity="0.7" fill="#FFFFFF"></path>
											</svg>